<?xml version="1.0" standalone="no"?>
<!DOCTYPE svg PUBLIC "-//W3C//DTD SVG 20010904//EN"
 "http://www.w3.org/TR/2001/REC-SVG-20010904/DTD/svg10.dtd">
<svg version="1.0" xmlns="http://www.w3.org/2000/svg"
 width="1024.000000pt" height="703.000000pt" viewBox="0 0 1024.000000 703.000000"
 preserveAspectRatio="xMidYMid meet">
<metadata>
Created by potrace 1.15, written by Peter Selinger 2001-2017
</metadata>
<g transform="translate(0.000000,703.000000) scale(0.100000,-0.100000)"
fill="#000000" stroke="none">
<path d="M3715 6343 c-99 -85 -236 -198 -305 -251 -69 -53 -183 -144 -255
-202 -71 -59 -184 -147 -250 -196 -286 -214 -730 -556 -1042 -802 -213 -168
-221 -175 -212 -200 12 -30 9 -132 -3 -132 -4 0 -8 5 -8 10 0 6 -5 10 -11 10
-5 0 -8 -4 -5 -9 6 -9 -21 -15 -125 -27 -52 -5 -56 -8 -51 -28 5 -17 7 -18 10
-3 2 9 12 17 22 17 10 0 21 -8 23 -17 4 -14 5 -12 6 5 1 15 7 22 21 22 11 0
20 -6 20 -12 0 -10 3 -9 9 1 5 7 26 15 47 17 22 2 49 6 61 10 18 5 22 1 26
-23 l4 -28 2 27 c0 16 8 28 19 31 9 3 3 5 -14 6 l-31 1 -2 73 c-2 70 -1 73 31
104 77 73 593 476 1093 853 149 112 308 236 355 275 47 39 150 121 230 183 80
61 183 144 230 184 47 40 106 89 129 108 44 35 101 82 133 108 17 14 18 3 13
-214 -3 -126 -10 -285 -15 -353 -9 -115 -12 -754 -4 -721 2 8 5 157 7 330 3
294 26 960 33 969 2 2 12 -3 21 -11 18 -15 211 -131 379 -226 50 -28 185 -95
300 -148 115 -52 232 -108 260 -124 28 -16 176 -89 330 -163 153 -73 335 -166
403 -205 68 -39 148 -78 177 -87 35 -10 54 -21 54 -31 0 -8 4 -13 9 -9 5 3 21
0 36 -7 24 -11 26 -16 21 -52 -6 -39 -5 -40 5 -11 7 17 16 35 21 42 6 8 2 14
-14 18 -13 4 -30 13 -38 21 -8 7 -49 25 -90 39 -41 15 -129 58 -195 96 -66 38
-232 122 -370 188 -137 65 -284 137 -325 159 -41 22 -165 82 -275 132 -110 51
-252 122 -315 157 -212 120 -378 223 -384 238 -3 8 -9 15 -13 14 -4 0 -89 -70
-188 -156z"/>
<path d="M4013 5708 c4 -32 2 -45 -11 -55 -15 -11 -15 -12 -1 -13 14 0 16 -12
11 -92 -5 -83 -3 -92 10 -80 9 7 14 21 11 32 -4 14 0 20 11 20 9 0 16 -5 16
-10 0 -6 6 -10 13 -8 17 3 57 -12 57 -21 0 -14 -48 -53 -58 -47 -13 8 -35 -20
-27 -34 4 -6 27 7 57 34 31 27 57 42 66 38 12 -4 11 -8 -7 -23 -12 -10 -17
-20 -13 -23 5 -3 17 3 27 14 22 24 45 26 45 4 0 -13 3 -14 14 -5 11 9 22 9 49
-3 37 -15 41 -31 17 -62 -8 -10 1 -6 21 9 32 24 40 26 65 17 27 -11 27 -12 10
-22 -13 -8 -20 -7 -26 2 -10 16 -35 -1 -76 -50 l-29 -35 33 28 c19 15 39 24
44 21 6 -4 8 -2 4 4 -10 16 13 25 30 11 11 -9 18 -8 32 5 21 18 42 21 42 6 0
-5 10 -10 22 -10 18 0 14 -7 -28 -48 -27 -26 -69 -64 -94 -85 -25 -21 -31 -29
-15 -18 17 11 62 47 100 80 67 58 111 79 99 46 -4 -8 -11 -12 -18 -8 -6 3 -8
2 -3 -2 4 -5 -5 -22 -20 -39 -19 -20 -11 -16 24 13 43 35 55 41 71 32 11 -6
23 -7 27 -3 5 4 5 -1 2 -10 -5 -15 -3 -16 12 -6 10 6 26 8 36 4 17 -6 16 -9
-6 -33 l-24 -27 32 22 c32 23 73 29 73 12 0 -5 7 -7 15 -4 8 4 15 1 15 -5 0
-6 12 -11 28 -11 l27 -1 -25 -14 -25 -15 29 6 c23 6 27 4 21 -7 -5 -8 2 -5 15
6 13 11 20 14 16 8 -7 -13 9 -18 47 -15 20 2 22 -9 5 -28 -8 -8 -4 -7 11 3 19
12 29 13 50 4 36 -15 35 -14 20 -34 -13 -16 -12 -17 2 -5 9 7 32 13 50 13 38
1 127 -29 94 -31 -12 -1 -15 -4 -7 -7 10 -4 6 -14 -15 -37 l-28 -31 35 33 c24
21 46 32 65 32 l30 -1 -25 -15 c-24 -14 -22 -15 30 -9 39 4 51 2 40 -5 -12 -7
-7 -10 19 -10 48 0 101 -21 101 -40 0 -13 2 -13 10 0 5 8 12 12 15 9 8 -8 -13
-62 -28 -71 -9 -6 -9 -10 -1 -15 7 -6 8 -30 3 -78 -7 -67 -2 -161 9 -150 3 2
4 38 3 79 -2 62 1 76 16 86 16 10 16 11 1 6 -26 -8 -23 19 5 45 18 18 19 21 3
15 -13 -4 -17 -2 -13 8 3 8 11 31 17 53 7 24 18 39 28 40 21 1 72 10 132 22
78 17 73 28 65 -141 -4 -84 -11 -180 -16 -212 -8 -56 -6 -76 6 -64 3 3 10 90
15 194 12 219 16 244 38 244 13 0 12 2 -3 14 -11 8 -23 12 -27 10 -4 -3 -18 2
-30 10 -26 16 -138 58 -283 106 -139 46 -1015 360 -1110 398 -59 24 -206 72
-219 72 -5 0 -6 -19 -3 -42z"/>
<path d="M3471 5546 c-11 -13 -176 -118 -256 -162 -11 -6 -54 -30 -95 -52 -41
-23 -71 -42 -66 -42 21 0 -30 -29 -52 -30 -12 0 -25 -7 -28 -15 -4 -8 -12 -15
-19 -15 -7 0 -15 -4 -17 -8 -2 -7 -142 -89 -172 -101 -6 -2 -15 -8 -21 -13 -5
-5 -57 -36 -115 -70 -155 -90 -240 -145 -234 -151 3 -3 -7 -8 -23 -12 -15 -3
-46 -19 -68 -35 -129 -93 -315 -209 -315 -195 0 3 -7 -1 -16 -9 -8 -9 -23 -16
-32 -16 -15 0 -15 -2 -2 -11 11 -7 -2 -8 -45 -5 -41 4 -52 3 -35 -3 23 -8 23
-9 -10 -10 -19 -1 -30 -5 -24 -9 6 -4 14 -14 17 -22 5 -13 6 -13 6 1 1 19 124
46 129 28 3 -6 9 -6 18 2 11 9 15 7 20 -7 3 -11 10 -28 15 -39 7 -16 8 -12 6
17 -3 37 -2 37 41 44 23 3 46 3 50 0 7 -7 7 -162 -1 -210 -3 -24 -9 -30 -36
-32 -17 -2 -31 1 -31 7 0 6 -7 3 -16 -5 -20 -21 -34 -20 -34 2 -1 16 -1 16
-14 -1 -7 -9 -24 -17 -37 -17 -41 0 -120 -9 -609 -70 -85 -10 -229 -26 -320
-35 -91 -10 -168 -19 -171 -20 -3 -2 -43 -7 -89 -10 -46 -4 -95 -11 -109 -16
-17 -7 -27 -6 -33 3 -5 9 -8 9 -8 1 0 -13 -46 -21 -132 -25 -32 -2 -58 -6 -58
-9 0 -4 -16 -9 -35 -11 -41 -5 -46 7 -10 24 18 8 24 17 20 29 -3 9 -1 20 5 24
19 12 10 53 -16 74 -15 12 -33 21 -40 21 -8 0 -14 4 -14 8 0 5 -14 9 -31 9
-28 0 -48 15 -49 36 0 10 45 27 71 27 10 0 19 -6 19 -14 0 -8 4 -17 9 -20 5
-4 7 3 4 14 -5 20 -1 22 80 35 27 4 37 2 37 -7 0 -9 2 -10 8 -2 4 7 16 14 27
18 22 6 -98 -1 -184 -11 l-53 -6 37 56 c21 32 40 57 42 57 2 0 20 -12 38 -26
31 -23 37 -25 70 -14 34 11 40 30 8 30 -9 0 -31 9 -50 21 -30 19 -33 24 -27
55 4 24 2 40 -9 52 -8 9 -18 27 -21 38 -7 24 -57 49 -78 41 -7 -3 -4 -6 7 -6
22 -1 65 -27 65 -39 0 -4 -28 -6 -62 -6 l-63 2 60 -7 60 -6 1 -40 c0 -22 2
-47 5 -55 3 -10 -7 -16 -36 -20 -42 -6 -78 -23 -107 -48 -11 -9 -18 -10 -18
-4 0 6 4 14 10 17 14 9 32 45 23 45 -4 0 -19 -10 -33 -21 -14 -11 -19 -18 -12
-14 17 9 15 1 -7 -36 -12 -20 -21 -26 -24 -17 -3 7 -6 1 -6 -13 -1 -28 -18
-54 -41 -62 -12 -4 -11 -6 3 -6 14 -1 16 -5 8 -19 -19 -35 28 -103 71 -102 7
1 -1 7 -19 15 -34 15 -50 48 -38 84 5 16 15 21 41 21 19 0 34 -4 34 -8 0 -22
61 -96 109 -132 29 -22 49 -40 44 -40 -5 0 -17 -13 -26 -30 -10 -16 -15 -30
-12 -30 4 0 -14 -26 -38 -57 -96 -125 -99 -184 -11 -213 19 -6 34 -14 34 -16
0 -16 -42 -81 -59 -92 -19 -11 -21 -10 -21 12 0 31 -24 55 -61 63 -28 5 -28 6
-14 33 8 16 23 31 32 33 16 4 16 5 1 6 -9 0 -20 10 -23 22 -4 11 -20 26 -37
33 l-30 13 45 11 c24 7 49 18 56 25 6 8 18 52 26 98 9 46 18 99 22 117 5 29 3
32 -18 31 -17 -1 -19 -3 -6 -6 20 -5 20 -3 2 -78 -8 -33 -14 -74 -15 -91 0
-39 -31 -80 -66 -87 -24 -4 -25 -3 -18 22 14 45 9 100 -10 119 -16 16 -16 16
-2 -13 20 -37 20 -56 2 -100 -12 -27 -21 -35 -40 -35 -15 0 -26 -4 -26 -9 0
-17 40 -59 70 -71 30 -12 39 -33 20 -45 -19 -12 -10 -35 13 -35 70 0 90 -74
35 -127 -49 -47 -107 -83 -124 -76 -8 3 -14 0 -14 -6 0 -27 53 -4 114 50 28
24 47 37 44 28 -11 -29 -91 -129 -103 -129 -7 0 -19 -7 -26 -17 -13 -15 -15
-13 -20 13 -4 16 -6 -43 -6 -131 0 -117 2 -139 6 -80 l6 80 19 -49 c18 -46 18
-51 1 -112 -13 -48 -15 -78 -9 -126 10 -82 5 -122 -14 -104 -4 4 -10 49 -13
99 l-5 92 -2 -92 c-2 -83 0 -94 18 -105 14 -9 20 -24 20 -50 0 -32 -3 -38 -22
-38 l-22 0 22 -20 c21 -20 22 -29 21 -158 -1 -75 -5 -148 -9 -162 -7 -23 -8
-23 -10 10 l-2 35 -8 -35 c-4 -19 -11 -43 -15 -52 -4 -12 -3 -18 5 -18 9 0 11
-12 7 -40 -3 -22 -1 -40 4 -40 5 0 9 5 9 10 0 6 5 10 11 10 6 0 24 11 41 25
33 28 58 34 38 10 -23 -27 -2 -28 30 -1 17 14 37 26 43 26 7 0 6 -5 -3 -11
-11 -7 0 -8 40 -4 l55 6 -40 -25 c-32 -20 -55 -26 -110 -28 -64 -2 -66 -2 -17
-5 44 -3 50 -6 39 -18 -8 -7 -22 -15 -33 -18 -10 -2 -1 -3 20 0 39 4 40 4 22
-16 -27 -30 -6 -34 84 -16 l75 14 -68 -6 c-59 -5 -67 -3 -61 11 4 10 18 16 38
17 25 0 27 2 12 8 -33 13 -2 22 63 20 57 -2 62 0 102 35 28 26 44 35 52 27 7
-7 -5 -24 -39 -55 -27 -25 -54 -45 -59 -46 -12 0 -39 -40 -27 -40 5 0 22 13
38 30 16 16 39 30 52 30 12 0 22 5 22 10 0 6 7 10 16 10 13 0 14 3 5 14 -10
12 -9 17 6 24 10 6 29 10 43 11 14 0 41 3 60 6 55 10 106 15 233 21 101 6 117
4 117 -9 0 -22 -39 -28 -179 -28 -103 0 -212 -4 -265 -8 -5 -1 -6 -4 -2 -8 3
-4 47 -6 96 -5 49 1 100 -2 113 -7 30 -12 168 -24 143 -13 -38 16 11 22 187
20 94 -1 155 -3 135 -5 -21 -3 -38 -8 -38 -12 0 -4 16 -5 35 -3 63 7 37 -15
-27 -24 l-63 -9 58 -3 c32 -2 55 -7 52 -11 -3 -5 11 -11 30 -13 19 -2 35 0 35
4 0 4 -7 8 -15 8 -8 0 -15 4 -15 9 0 5 9 7 20 4 25 -7 26 -29 1 -43 -11 -5
-69 -10 -130 -10 -151 0 -159 22 -11 33 32 3 26 4 -23 5 -38 1 -66 6 -63 11 4
5 0 12 -6 14 -7 3 1 6 18 6 16 1 34 5 40 10 5 5 20 11 34 14 25 4 -191 1 -220
-4 -8 -1 3 -5 25 -9 32 -6 23 -8 -45 -8 -97 -1 -226 -18 -254 -34 -16 -8 -18
-7 -13 6 5 12 0 16 -21 17 l-27 1 29 12 c41 19 12 24 -54 10 -52 -11 -53 -11
-20 -15 l35 -4 -36 -22 c-20 -13 -52 -23 -70 -23 -28 -1 -41 -9 -73 -46 -21
-25 -36 -47 -33 -50 3 -3 29 -1 58 5 53 12 77 7 48 -9 -35 -20 -64 -49 -56
-56 5 -5 22 -1 38 9 36 20 71 22 100 4 17 -9 23 -9 26 1 3 6 15 12 29 12 17 0
22 -4 18 -15 -4 -8 -17 -15 -30 -15 -13 0 -23 -5 -21 -11 1 -7 -13 -16 -31
-21 -26 -7 -30 -11 -20 -22 11 -12 17 -11 38 4 14 9 36 23 50 30 21 10 23 10
13 -1 -23 -23 -14 -32 27 -25 33 5 38 4 34 -9 -5 -11 -21 -15 -60 -15 -49 0
-72 -12 -42 -22 27 -9 -29 -27 -58 -19 l-29 8 35 8 c34 7 34 8 11 17 -19 7
-29 4 -47 -13 -26 -25 -23 -39 9 -40 20 -1 20 -2 -3 -8 -19 -5 -24 -13 -22
-30 2 -12 -2 -30 -10 -38 -11 -15 -11 -16 7 -8 11 5 60 10 108 13 l89 4 -12
-23 -11 -24 20 24 c26 29 26 35 -1 50 -21 10 -20 11 14 8 38 -3 62 18 33 29
-8 4 -12 10 -9 15 7 12 51 11 59 -1 9 -15 67 -11 95 6 l25 15 -25 -6 c-63 -17
-80 -17 -80 -2 0 19 63 32 88 18 13 -7 23 -6 32 2 10 10 10 7 0 -13 l-13 -24
32 27 c39 32 71 36 71 8 0 -11 4 -22 9 -25 4 -3 6 6 3 19 -4 24 -2 25 42 25
34 0 46 -4 46 -15 0 -9 -10 -15 -26 -15 -15 0 -23 -4 -19 -11 4 -6 13 -8 21
-5 8 3 14 0 14 -8 0 -23 -12 -25 -38 -8 -15 9 -23 11 -19 4 10 -15 -61 -17
-110 -3 -19 6 -35 6 -38 1 -3 -5 -12 -7 -20 -4 -7 3 -19 -4 -25 -17 -12 -21
-11 -22 21 -14 19 4 93 9 164 10 85 1 150 8 188 19 32 9 81 17 110 17 l52 2
-40 7 c-22 4 -36 8 -31 9 6 0 1 7 -9 15 -17 12 -14 14 28 20 26 4 49 11 52 16
3 4 -7 5 -21 1 -36 -9 -92 -2 -97 13 -3 7 1 13 9 13 7 0 11 -5 7 -10 -3 -5 3
-7 13 -4 11 3 37 8 59 12 22 3 48 8 58 11 9 3 17 1 17 -5 0 -6 -7 -11 -15 -11
-28 0 -15 -17 14 -18 24 0 28 3 24 19 -3 12 0 19 8 19 11 0 11 2 -1 10 -15 9
-12 11 37 26 7 2 13 10 13 17 0 10 -17 14 -62 16 -73 3 -78 5 -77 34 0 12 3
16 6 10 3 -8 22 -13 46 -12 33 0 38 2 22 9 -14 6 -5 9 36 9 42 1 60 -4 72 -17
23 -25 21 -30 -10 -35 -23 -3 -22 -4 8 -6 22 0 39 -7 42 -16 5 -11 -7 -16 -54
-21 -34 -4 -55 -10 -49 -14 9 -5 9 -9 1 -14 -6 -4 -11 -25 -11 -47 0 -40 0
-41 -31 -34 -22 5 -29 4 -25 -4 5 -7 -2 -11 -16 -12 -22 0 -22 -1 -3 -9 28
-12 67 -12 60 0 -3 5 9 4 27 -3 23 -8 28 -12 16 -15 -26 -5 -22 -19 12 -39 17
-9 30 -25 30 -35 0 -10 5 -18 10 -18 6 0 10 7 10 16 0 11 5 14 16 10 28 -11
101 -17 79 -7 -16 7 -8 10 35 12 78 5 161 -1 154 -12 -3 -5 4 -9 15 -9 11 0
23 -5 27 -12 5 -8 0 -9 -17 -5 -13 4 -30 7 -37 7 -8 0 -10 5 -6 12 5 8 2 9
-10 5 -10 -4 -36 -8 -59 -8 -34 -1 -25 -5 48 -20 114 -23 108 -23 100 2 -5 14
-3 20 5 17 6 -2 11 -8 10 -13 0 -6 14 -13 32 -17 37 -7 54 0 20 9 -26 6 -29
23 -4 24 11 1 9 4 -8 9 -23 7 -22 8 10 9 19 1 46 4 60 7 17 4 21 3 12 -4 -11
-7 -10 -10 6 -14 10 -3 21 -17 24 -31 5 -24 3 -25 -56 -31 -34 -3 -109 -8
-168 -12 l-107 -6 -7 26 c-3 14 -9 26 -13 26 -13 0 -105 -31 -125 -42 -11 -5
-47 -13 -80 -15 -34 -3 -68 -10 -76 -15 -9 -5 4 -6 35 -2 56 7 54 -5 -3 -22
-35 -11 -36 -12 -9 -13 16 -1 42 7 58 16 29 18 51 11 31 -9 -14 -14 -80 -38
-107 -38 -20 -1 -20 -1 0 -12 19 -11 19 -11 0 -19 -11 -4 -45 -8 -75 -8 -30
-1 -70 -5 -88 -10 -17 -5 -32 -6 -32 -1 0 5 8 11 18 13 9 3 0 5 -20 6 -36 1
-50 -11 -28 -24 6 -4 7 -11 4 -17 -9 -14 96 -1 110 13 14 13 103 11 112 -2 8
-14 -14 -29 -41 -29 -17 0 -17 2 -5 10 17 11 1 13 -24 4 -31 -12 -16 -24 29
-24 25 0 45 -3 45 -7 0 -5 -52 -9 -116 -11 -64 -1 -113 1 -110 6 3 5 -16 5
-42 1 -26 -4 -52 -8 -58 -8 -5 -1 -18 -24 -28 -52 -13 -36 -23 -49 -33 -45 -8
3 -17 6 -19 6 -2 0 -4 7 -4 15 0 9 12 21 28 27 l27 11 -25 7 c-22 6 -25 11
-22 46 4 41 12 57 19 36 3 -6 9 -10 14 -7 5 3 17 1 28 -5 12 -6 22 -6 25 -1 4
5 -7 12 -23 16 -16 3 -32 13 -35 21 -3 8 -12 14 -21 14 -18 0 -20 16 -2 24 6
3 -1 4 -17 3 -16 -1 -31 3 -33 10 -6 17 56 83 81 84 20 0 20 1 1 8 -11 5 -26
6 -34 3 -10 -4 -12 -1 -6 8 6 10 3 12 -13 8 -12 -4 -20 -2 -17 2 10 16 -18 23
-73 21 l-54 -3 18 26 c11 14 26 26 34 26 13 0 13 1 0 10 -22 14 -43 12 -37 -4
14 -36 -30 -53 -146 -56 -14 0 -15 -3 -5 -13 7 -8 22 -12 33 -10 11 2 14 0 7
-3 -10 -5 -10 -10 3 -24 15 -17 15 -18 -1 -16 -11 0 -20 -9 -25 -29 -9 -30 1
-45 30 -45 11 0 9 4 -5 15 -18 14 -18 14 4 15 19 0 21 2 10 14 -7 8 -17 11
-22 8 -5 -3 -6 0 -2 7 4 6 11 9 16 6 4 -3 13 2 20 10 8 9 32 16 64 17 l51 1
-45 7 -45 7 41 1 c48 2 68 -13 53 -40 -5 -10 -6 -18 -2 -19 4 0 -1 -4 -12 -9
-19 -8 -19 -9 3 -9 29 -1 28 -9 -4 -42 l-27 -28 59 6 c54 6 58 5 45 -10 -15
-19 -2 -24 16 -6 17 17 24 -4 17 -55 -7 -45 -8 -46 -42 -46 -31 0 -33 2 -20
13 15 10 15 14 2 25 -11 11 -14 10 -14 -3 0 -20 -16 -19 -24 2 -4 10 -4 14 0
10 4 -4 16 7 26 24 27 44 16 46 -20 5 l-30 -35 -16 25 c-16 23 -16 24 6 25 22
1 22 1 -2 8 -31 10 -92 2 -84 -10 3 -5 18 -9 34 -9 23 0 33 -7 45 -30 14 -27
14 -30 -2 -38 -10 -5 -30 -12 -45 -16 l-28 -6 20 37 21 38 -24 -28 c-22 -26
-28 -28 -69 -22 -44 7 -54 2 -56 -30 -1 -5 -16 -13 -34 -17 -33 -7 -33 -7 5
-4 29 1 36 -1 32 -12 -3 -7 -5 -17 -5 -22 0 -5 -19 -8 -42 -8 -46 0 -92 -14
-103 -31 -3 -6 -10 -11 -16 -11 -5 0 -4 9 3 19 9 15 9 23 -2 35 -11 15 -9 16
16 15 37 -3 81 11 65 20 -7 5 5 19 34 40 25 18 50 41 56 52 5 11 18 19 27 18
33 -3 53 1 48 10 -3 5 -15 7 -26 4 -21 -6 -25 3 -12 25 5 7 16 10 25 6 9 -3
17 -2 17 4 0 5 -9 12 -19 15 -16 4 -27 -7 -52 -49 -51 -84 -74 -96 -192 -101
-56 -2 -103 -6 -106 -9 -3 -3 23 -5 59 -4 88 4 122 1 116 -8 -2 -4 -19 -9 -37
-10 -44 -3 -53 -12 -32 -27 17 -13 17 -14 -1 -34 -11 -12 -23 -21 -28 -21 -5
0 -16 -7 -24 -15 -9 -9 -11 -15 -4 -15 6 0 8 -5 4 -13 -6 -9 -5 -9 7 0 8 6 28
13 44 15 17 1 28 7 27 12 -5 12 19 26 47 26 21 0 22 -2 10 -17 -9 -11 -3 -9
15 5 30 23 71 28 96 12 9 -6 20 -5 29 3 12 10 13 9 6 -2 -6 -11 -2 -13 19 -9
32 6 33 2 5 -13 -17 -9 -24 -8 -31 2 -8 11 -9 10 -5 -3 3 -9 1 -19 -6 -22 -8
-3 -6 -10 7 -20 19 -15 18 -16 -21 -16 -34 0 -41 3 -38 17 2 10 4 22 4 26 1 5
5 6 10 3 5 -3 15 2 22 12 13 16 13 16 -5 2 -18 -14 -19 -13 -13 3 10 27 -1 20
-18 -12 -13 -27 -18 -29 -52 -24 -21 3 -41 10 -44 15 -8 12 -55 -11 -92 -46
-15 -14 -32 -26 -38 -26 -5 0 -9 -6 -9 -14 0 -12 4 -12 30 0 16 9 30 22 30 30
0 8 5 14 10 14 21 0 25 2 40 15 9 8 25 12 35 10 76 -15 77 -16 65 -30 -9 -11
-4 -12 32 -8 67 7 88 13 88 23 0 6 -8 10 -17 10 -13 0 -8 9 17 33 19 18 41 31
48 29 6 -2 12 3 12 11 0 26 44 69 72 70 14 1 24 5 21 10 -2 4 16 7 41 7 25 0
46 -2 46 -5 0 -24 -35 -66 -58 -71 -15 -3 -36 -10 -47 -15 -17 -8 -17 -9 5 -4
14 2 33 5 42 5 10 0 27 9 39 21 l21 21 31 -23 c20 -15 32 -18 35 -11 2 7 10
12 18 12 8 0 31 9 51 20 45 24 26 27 -23 4 -19 -9 -37 -14 -41 -11 -3 3 1 23
10 44 l15 38 156 3 156 3 0 -46 c0 -42 -2 -45 -26 -45 -14 0 -23 -4 -19 -9 3
-5 -5 -12 -17 -14 -13 -3 -4 -3 20 -2 24 1 45 5 47 7 3 2 5 25 6 50 l2 46 61
9 61 10 -57 2 c-55 1 -58 2 -56 25 4 40 60 60 153 54 42 -3 78 -1 81 3 2 5
-37 10 -88 11 -80 3 -90 5 -68 15 14 6 21 12 15 13 -5 0 -3 5 5 10 20 13 33
13 25 0 -8 -12 57 -14 71 -1 5 5 35 11 67 14 55 5 57 5 57 -18 0 -22 -3 -23
-37 -19 l-38 4 40 -13 c32 -11 36 -15 20 -19 -11 -3 14 -6 55 -6 41 0 67 2 58
5 -14 3 -18 15 -18 48 0 24 -3 50 -6 59 -5 14 6 16 85 16 65 0 91 3 91 12 0 7
7 3 15 -8 12 -19 28 -22 141 -28 129 -7 135 -9 167 -56 21 -31 21 -37 0 -43
-14 -4 -13 -5 4 -6 30 -1 40 -21 19 -36 -18 -13 -52 -9 -74 8 -11 8 -11 12 0
18 10 7 10 9 1 9 -7 0 -13 5 -13 10 0 6 11 10 25 10 14 0 25 4 25 9 0 4 -12 6
-26 3 -24 -4 -25 -3 -15 17 21 39 -17 45 -276 42 -57 -1 -103 -4 -103 -9 0 -4
20 -6 43 -4 31 3 49 -1 60 -13 26 -25 21 -37 -13 -30 -19 4 -37 1 -50 -8 -20
-14 -19 -15 25 -19 25 -2 51 1 57 7 8 7 9 6 4 -3 -5 -9 8 -12 51 -14 l58 -1
-45 -7 c-25 -4 -40 -8 -35 -10 14 -3 -43 -17 -77 -19 -19 -1 -28 4 -28 14 0
11 -12 15 -50 15 -38 0 -50 -4 -50 -15 0 -9 -9 -15 -25 -15 -26 0 -34 -15 -12
-23 6 -3 -1 -6 -18 -7 -29 -1 -29 -2 10 -14 26 -8 35 -14 25 -18 -9 -4 -10 -7
-2 -7 6 -1 12 -8 12 -16 0 -12 -13 -15 -55 -15 -49 0 -57 3 -67 25 -14 30 -28
33 -28 5 0 -17 -6 -20 -47 -19 -36 0 -43 3 -28 9 19 8 19 9 -2 9 -18 1 -23 7
-23 26 0 22 4 25 35 25 19 0 35 4 35 9 0 5 10 12 23 15 12 3 -12 2 -53 0 -125
-9 -163 -14 -169 -20 -3 -4 18 -4 47 -2 44 4 54 2 62 -13 15 -28 12 -39 -12
-39 -21 0 -21 0 -2 -21 16 -18 27 -20 73 -16 39 4 57 2 68 -9 13 -12 12 -14
-1 -14 -20 0 -20 -13 0 -55 14 -31 18 -33 55 -28 37 5 39 4 39 -20 0 -14 -6
-28 -12 -30 -7 -3 -4 -6 8 -6 18 -1 21 5 20 32 -1 17 -5 35 -11 39 -5 4 0 8
13 9 79 5 113 5 157 -2 58 -8 64 -6 42 19 -27 29 -20 34 34 27 49 -7 50 -6 40
13 -16 31 -15 32 36 32 43 0 54 11 15 16 -9 1 -32 5 -51 9 -34 8 -34 8 -28
-23 6 -32 6 -32 -33 -32 -38 0 -40 1 -34 25 6 23 4 25 -29 25 -20 0 -39 5 -42
10 -4 6 6 10 23 10 17 0 32 6 36 15 5 15 -8 19 -46 16 -10 -1 -18 3 -18 8 0 7
24 11 58 11 31 0 93 3 137 6 l80 6 18 -31 18 -31 -33 -1 -33 -2 35 -7 c19 -4
29 -8 21 -9 -8 0 -11 -4 -8 -7 4 -4 13 -1 22 6 13 11 13 15 -2 41 -9 16 -15
30 -12 32 10 10 60 17 55 9 -3 -6 14 -13 39 -17 40 -5 47 -10 60 -42 17 -41
13 -50 -30 -56 -28 -4 -28 -4 6 -6 47 -1 62 16 44 49 -29 52 -20 63 60 73 23
3 21 4 -11 6 -23 0 -47 7 -54 15 -10 13 -4 15 37 19 l48 3 -51 2 c-53 2 -52 2
-92 85 -2 4 48 7 111 7 95 0 117 -3 128 -17 13 -15 12 -15 -8 -5 -12 7 -30 12
-40 12 -15 0 -16 -2 -3 -11 11 -8 -2 -9 -47 -5 -36 3 -65 2 -68 -4 -4 -6 15
-10 47 -11 29 0 73 -4 98 -9 36 -7 30 -8 -27 -3 -42 3 -73 1 -73 -4 0 -5 14
-19 30 -31 17 -13 30 -28 30 -34 0 -6 16 -27 36 -46 34 -33 35 -36 18 -49 -10
-7 -14 -13 -8 -14 5 -1 -2 -5 -16 -9 -19 -6 -11 -8 33 -9 42 -1 59 -5 64 -17
9 -23 -7 -32 -62 -36 -45 -3 -50 -1 -53 20 -2 12 -8 22 -14 22 -6 0 -8 -9 -5
-19 4 -17 0 -20 -34 -18 -21 1 -39 5 -39 9 0 9 -64 11 -73 2 -15 -15 8 -34 42
-34 20 -1 55 -5 78 -9 23 -4 46 -5 50 0 4 4 28 9 53 10 72 4 90 16 90 60 0 31
4 38 23 42 12 2 -4 5 -35 6 -45 1 -59 5 -67 20 -9 15 -7 20 12 25 36 9 234 7
218 -3 -11 -7 -10 -10 5 -14 10 -2 1 -6 -21 -7 -56 -2 -81 -13 -63 -27 7 -5
27 -14 43 -19 l30 -8 -28 -4 c-33 -4 -26 -22 9 -22 15 0 24 -6 24 -15 0 -8 -4
-15 -10 -15 -5 0 -10 4 -10 8 0 8 -39 6 -87 -4 -46 -9 -21 -24 40 -24 72 0 92
9 83 38 -8 25 12 29 220 38 146 6 202 0 158 -17 -14 -6 -9 -8 19 -8 46 -1 49
-18 5 -24 -30 -3 -29 -4 8 -5 25 -1 47 -9 57 -20 22 -25 13 -32 -40 -32 -28 0
-42 -4 -38 -10 4 -6 14 -9 23 -6 10 3 35 1 57 -4 l40 -8 -40 -2 c-38 -2 -39
-3 -10 -9 l30 -7 -47 -18 c-39 -15 -78 -19 -208 -20 -143 -1 -160 -3 -157 -17
4 -15 -15 -16 -202 -12 -149 4 -210 9 -220 18 -18 18 -5 35 26 35 36 0 24 9
-15 12 -18 1 -32 6 -32 11 0 4 6 7 13 6 22 -3 37 1 37 9 0 4 -19 6 -42 5 -24
-2 -37 0 -30 3 26 12 10 19 -39 15 -36 -2 -54 1 -60 10 -7 11 -9 11 -9 -1 0
-20 42 -48 48 -31 2 6 13 11 25 10 12 0 16 -3 10 -6 -22 -8 -14 -34 22 -74 39
-44 46 -66 16 -49 -33 17 -38 11 -7 -9 l29 -19 -24 -5 c-20 -4 -19 -4 6 -5 33
-1 81 15 55 18 -8 2 -1 6 15 10 30 8 30 8 -7 9 -21 0 -38 6 -38 12 0 13 269 2
283 -11 5 -4 -6 -13 -24 -19 -40 -14 -39 -14 -39 5 0 8 -4 13 -10 9 -5 -3 -7
-12 -4 -20 4 -9 -5 -16 -28 -20 -19 -4 -40 -15 -46 -26 -11 -17 -9 -19 15 -20
16 0 37 -4 48 -8 16 -7 14 -9 -14 -14 -45 -9 -101 -9 -101 1 0 4 9 18 20 32
30 38 25 50 -17 48 -37 -1 -37 -1 -5 -5 38 -5 39 -9 8 -47 -23 -27 -26 -28
-65 -19 -49 13 -52 9 -10 -12 24 -13 49 -15 112 -11 125 8 119 6 113 42 -6 30
-5 32 31 38 68 11 113 7 113 -9 0 -8 9 -19 20 -25 34 -18 23 -31 -22 -25 -39
5 -40 4 -13 -5 17 -6 44 -8 62 -5 17 3 43 3 57 -1 22 -5 23 -8 11 -20 -9 -10
-35 -13 -82 -12 l-68 1 60 7 c57 6 58 7 15 8 -68 3 -87 11 -100 43 -7 16 -16
29 -21 29 -12 0 -6 -39 7 -44 6 -2 10 -15 9 -28 -1 -21 -7 -23 -59 -26 -43 -2
-56 0 -50 9 5 9 -8 10 -52 5 -32 -4 -67 -7 -77 -7 -9 0 -15 -3 -13 -7 2 -4
-92 -8 -210 -7 -118 0 -214 -3 -214 -7 0 -12 353 -13 394 -1 10 3 16 1 13 -3
-3 -5 14 -8 36 -6 l42 4 0 -37 c0 -29 -3 -35 -17 -31 -10 2 -20 1 -23 -4 -5
-8 65 -20 78 -13 4 2 -3 13 -15 23 -19 15 -21 21 -11 43 11 24 17 26 102 29
79 3 91 1 95 -15 3 -13 -2 -17 -27 -17 -24 0 -28 -3 -17 -10 8 -5 22 -7 31 -5
9 3 16 -1 16 -10 0 -11 -11 -15 -38 -15 -21 0 -41 -4 -44 -10 -4 -6 20 -10 66
-10 55 0 77 -4 92 -17 19 -16 20 -17 14 -1 -4 11 0 18 11 21 12 3 11 5 -5 6
-17 1 -23 7 -23 25 0 18 7 26 23 29 12 2 1 5 -24 6 -30 1 -49 6 -52 15 -5 12
19 15 131 18 75 2 139 3 141 1 2 -1 -7 -7 -20 -12 -19 -8 -8 -10 48 -10 66 -1
71 0 66 19 -5 18 0 19 66 19 39 0 71 -5 71 -10 0 -5 -18 -8 -40 -7 -22 1 -43
-2 -47 -5 -6 -7 43 -11 79 -8 9 1 19 -3 23 -10 5 -8 1 -9 -14 -4 -12 4 -21 2
-21 -4 0 -6 10 -12 23 -12 15 -1 10 -4 -13 -9 l-35 -7 43 -2 c27 -1 42 3 42
12 0 6 3 22 6 35 5 18 3 21 -10 16 -9 -3 -16 -1 -16 4 0 14 83 26 117 17 16
-4 61 -9 102 -11 40 -2 79 -8 86 -12 8 -4 55 -5 105 -2 80 4 113 -1 98 -15 -4
-4 -127 -7 -183 -5 -11 1 -31 -2 -45 -6 l-25 -7 25 -7 c22 -7 20 -8 -15 -10
-22 -1 -53 -5 -70 -9 -26 -6 -28 -8 -10 -14 11 -4 36 -2 55 3 19 6 92 10 162
10 107 0 128 -2 128 -15 0 -15 -27 -18 -150 -17 -42 0 -43 0 -21 -12 19 -11
21 -14 7 -19 -23 -9 -20 -33 8 -54 22 -17 22 -20 8 -31 -14 -9 -14 -11 -2 -11
37 -1 40 15 10 42 -39 35 -38 45 8 52 20 4 47 11 58 17 16 7 43 5 100 -6 106
-22 163 -46 166 -71 3 -17 9 -19 41 -17 20 2 37 -1 37 -6 0 -10 -1 -10 92 -15
53 -4 81 -12 131 -40 98 -54 98 -54 162 -72 38 -11 70 -28 87 -46 15 -16 36
-29 47 -29 27 0 18 21 -17 42 l-27 16 25 6 c14 3 88 7 164 9 89 2 141 7 143
14 6 18 -31 25 -63 12 -16 -6 -74 -13 -129 -16 -55 -2 -112 -8 -127 -13 -34
-11 -98 7 -76 21 8 6 -4 9 -33 9 -43 0 -144 42 -174 72 -18 18 160 4 189 -15
14 -9 33 -17 43 -17 17 1 17 1 0 14 -15 12 -9 15 54 24 57 9 76 8 91 -2 18
-13 17 -14 -11 -24 -17 -6 -31 -13 -31 -16 0 -3 12 -1 26 4 32 12 37 12 29 0
-3 -5 13 -7 43 -3 28 3 58 1 69 -6 16 -8 22 -8 26 3 4 10 -7 15 -39 20 -24 3
-61 13 -81 21 -34 15 -36 17 -19 27 23 13 81 4 102 -16 8 -9 24 -16 34 -16 10
0 22 -4 25 -10 3 -5 17 -10 31 -10 51 0 89 -43 47 -52 -10 -3 -1 -6 19 -9 20
-3 34 -1 31 4 -7 12 27 1 109 -34 74 -32 102 -37 72 -13 -18 15 -18 15 8 11
15 -2 29 0 31 6 5 16 53 0 83 -28 15 -14 31 -25 37 -25 5 0 -1 -9 -14 -21
l-24 -20 25 4 c14 2 34 8 45 12 14 5 16 4 6 -3 -16 -12 -2 -23 35 -27 29 -3
30 3 7 22 -10 8 0 5 22 -8 53 -30 63 -39 41 -39 -12 0 -16 -5 -13 -14 4 -10
-3 -16 -21 -19 -15 -2 -11 -3 9 -2 20 2 44 -2 54 -7 12 -7 16 -7 11 0 -9 14
63 3 87 -13 25 -18 7 -27 -56 -31 -27 -1 -53 -7 -56 -12 -13 -22 -77 -24 -109
-4 -18 10 -29 22 -25 25 3 4 -2 7 -13 8 -11 0 -4 6 16 12 l35 10 -30 7 c-30 6
-29 6 19 23 27 9 52 14 56 12 4 -3 10 2 14 10 4 11 -1 14 -19 13 -13 -1 -22
-5 -19 -9 2 -4 -17 -12 -41 -19 -25 -7 -48 -16 -51 -21 -2 -4 -19 0 -37 10
-37 22 -92 39 -67 22 8 -6 11 -11 5 -11 -5 0 4 -11 20 -25 18 -15 24 -24 15
-25 -9 0 -6 -6 10 -17 16 -11 25 -13 28 -5 4 13 25 6 70 -24 l33 -23 -28 -15
c-24 -13 -25 -15 -7 -16 11 0 25 5 32 12 9 9 19 7 42 -10 30 -23 43 -15 15 8
-22 18 -9 30 36 30 21 0 39 4 39 8 0 4 25 13 57 20 53 11 59 10 117 -17 34
-16 92 -43 129 -60 42 -20 65 -36 61 -43 -4 -7 -3 -8 4 -4 7 4 12 11 12 15 0
5 -52 32 -116 62 -86 40 -111 55 -97 60 13 6 8 8 -17 8 -23 1 -54 14 -90 39
-31 20 -81 50 -112 67 -31 16 -54 33 -52 37 3 4 -4 8 -16 8 -29 0 -122 49
-115 60 4 6 -8 10 -27 11 -27 0 -30 2 -13 9 17 7 14 9 -13 9 -41 1 -75 18 -66
33 4 7 3 8 -4 4 -7 -4 -17 -4 -24 0 -8 5 -6 10 8 15 14 6 11 8 -16 8 -26 1
-31 4 -20 11 12 8 12 10 -5 11 l-20 0 20 9 c13 6 5 7 -25 4 -33 -4 -54 0 -80
15 -19 11 -63 34 -97 52 -55 29 -60 34 -45 46 9 7 13 13 7 12 -5 -1 -26 -1
-44 0 -36 1 -34 14 4 25 11 3 1 4 -23 2 -44 -4 -129 24 -115 37 3 4 -3 7 -15
7 -12 0 -22 5 -22 10 0 6 -14 10 -31 10 -17 0 -28 4 -24 10 3 6 -1 10 -9 10
-9 0 -16 5 -16 10 0 6 -9 10 -21 10 -13 0 -18 4 -13 12 5 8 2 9 -9 5 -11 -4
-17 -1 -17 9 0 8 -4 13 -10 9 -10 -6 -50 15 -50 27 0 3 6 8 13 11 6 2 3 3 -9
1 -12 -2 -29 5 -39 16 -11 13 -14 20 -6 20 7 0 10 4 6 9 -3 5 3 12 12 14 10 2
3 2 -15 0 -36 -4 -72 4 -72 16 0 15 92 32 133 26 39 -7 40 -19 2 -28 -11 -3 7
-3 40 0 40 3 55 1 46 -5 -7 -5 -11 -14 -7 -20 3 -6 -2 -15 -11 -21 -16 -9 -15
-10 6 -11 22 0 23 -3 18 -36 -5 -32 -4 -36 13 -31 10 3 40 0 66 -5 35 -8 43
-13 33 -20 -11 -8 -10 -8 5 -4 23 8 142 -44 125 -55 -8 -4 1 -9 22 -11 21 -2
33 -8 32 -15 -2 -7 6 -13 16 -13 11 0 27 -3 37 -7 16 -6 16 -7 -2 -14 -15 -6
-12 -8 13 -8 17 -1 39 -4 49 -8 16 -6 16 -7 -2 -15 -14 -6 -11 -7 12 -4 20 3
41 -2 60 -15 16 -10 38 -19 49 -19 16 -1 14 -4 -10 -15 l-30 -15 45 5 c25 3
52 1 60 -5 13 -9 13 -10 0 -11 -10 0 -8 -3 5 -9 19 -8 18 -9 -5 -11 -14 -1 1
-7 35 -14 35 -8 49 -13 33 -14 -16 -1 -28 -5 -28 -9 0 -5 26 -7 58 -5 42 3 53
2 42 -6 -12 -8 -5 -11 26 -11 25 0 47 -6 54 -15 7 -8 23 -15 36 -15 12 0 26
-5 30 -12 5 -8 0 -9 -14 -6 -12 4 -22 2 -22 -3 0 -5 18 -9 39 -9 51 0 78 -10
59 -21 -8 -6 -1 -9 22 -9 19 0 42 -5 50 -10 13 -9 13 -11 0 -21 -12 -8 -9 -10
14 -6 43 7 69 -5 31 -15 -29 -7 -29 -7 5 -4 37 3 100 -18 100 -34 0 -6 10 -10
21 -10 12 0 38 -8 58 -19 97 -49 131 -61 153 -51 23 9 23 9 -3 9 -33 1 -89 20
-89 31 0 4 -13 10 -29 13 -16 3 -35 13 -44 21 -8 8 -17 13 -19 10 -3 -2 -56
20 -119 50 -217 102 -290 136 -294 136 -2 0 -36 15 -77 34 -40 18 -126 57
-191 86 -97 44 -118 57 -114 72 4 15 -1 18 -36 18 -29 1 -60 11 -100 34 -68
39 -64 42 66 53 42 3 75 8 73 11 -9 8 -185 3 -203 -6 -13 -7 -28 -5 -53 6 -19
9 -44 19 -54 22 -11 3 -20 13 -22 23 -2 14 6 17 52 17 30 0 54 -4 54 -10 0 -5
9 -10 20 -10 11 0 20 5 20 10 0 6 7 10 15 10 8 0 15 5 15 11 0 7 -10 9 -27 4
-28 -7 -177 4 -169 12 3 3 81 7 173 8 92 2 341 6 553 10 281 5 393 4 415 -5
20 -8 31 -8 33 -1 2 7 46 11 115 11 62 0 209 5 327 10 448 19 1104 32 1108 21
2 -6 18 -11 35 -11 25 0 29 3 17 10 -23 16 168 10 204 -6 24 -10 26 -13 11
-14 -15 -1 -12 -4 12 -15 26 -11 38 -11 75 0 24 8 34 14 24 14 -10 1 -49 10
-85 20 -36 10 -87 25 -113 32 -40 11 -48 17 -48 36 0 15 -8 26 -22 32 -30 10
-137 14 -121 4 6 -5 -107 -9 -250 -10 -327 -2 -1007 -14 -1027 -18 -8 -2 -242
-6 -520 -9 -278 -4 -611 -11 -742 -17 -227 -9 -318 -6 -318 12 0 4 24 10 53
12 l52 3 -55 4 c-30 1 55 8 190 15 135 7 250 10 255 6 6 -4 24 -8 40 -9 17 -1
25 2 18 6 -6 4 192 7 440 6 296 0 384 2 257 6 -165 5 -179 6 -90 9 89 4 97 5
50 10 l-55 6 63 14 c34 8 60 16 58 18 -3 3 -47 -4 -98 -16 -117 -26 -175 -35
-168 -28 15 17 217 49 320 52 63 1 104 0 91 -2 -19 -4 -21 -7 -10 -14 9 -6 4
-7 -16 -4 -16 3 -52 -1 -80 -9 -45 -13 -11 -14 375 -15 241 0 419 3 411 8 -9
6 3 12 39 21 71 17 170 28 164 18 -3 -4 -15 -8 -26 -8 -12 0 -18 -3 -15 -7 4
-3 31 -1 59 5 63 14 178 23 157 12 -26 -13 -163 -29 -252 -28 -57 1 -92 -3
-100 -11 -9 -10 -5 -11 23 -6 19 3 150 7 291 8 229 2 257 0 282 -16 29 -19 33
-13 17 27 -8 22 -6 25 18 29 l27 3 -25 11 -25 11 24 9 c19 7 21 12 11 18 -9 5
-15 4 -18 -3 -5 -15 -32 -16 -32 -2 0 6 -4 10 -10 10 -5 0 -10 -7 -10 -16 0
-14 -8 -16 -50 -10 -42 6 -91 20 -109 33 -9 6 23 33 43 34 11 1 -4 5 -34 9
-30 3 -58 3 -61 -2 -3 -4 -29 -4 -59 2 -62 12 -85 12 -50 -1 17 -5 -2 -7 -55
-5 -44 2 -102 0 -130 -4 -88 -14 -252 -21 -230 -10 17 8 15 9 -10 5 -34 -5
-178 -7 -345 -4 l-115 1 64 14 c47 10 67 11 72 3 4 -8 21 -8 60 -1 63 13 346
11 372 -2 13 -6 17 -5 15 5 -2 11 23 14 137 13 77 0 132 1 123 3 -10 3 -18 9
-18 14 0 5 -18 9 -40 9 -27 0 -40 4 -39 13 5 38 -3 55 -26 61 -33 8 -140 -5
-124 -15 8 -5 -2 -9 -27 -12 -21 -2 5 -3 59 -1 60 2 97 0 97 -7 0 -5 -19 -9
-42 -8 -24 1 -81 -1 -128 -5 -54 -4 -80 -4 -71 2 17 12 6 32 -17 32 -13 0 -14
-2 -4 -9 10 -6 8 -10 -10 -14 -36 -10 -106 -8 -113 3 -4 6 -92 10 -230 10
-138 0 -226 4 -230 10 -3 6 -18 10 -33 9 -24 0 -25 -1 -7 -9 20 -8 -323 -6
-940 5 -170 3 -413 6 -540 6 -198 0 -242 3 -315 20 -47 12 -92 25 -100 29 -8
5 57 7 145 4 930 -23 1022 -24 990 -15 l-30 9 38 1 c21 0 36 -2 34 -7 -3 -4
194 -9 436 -10 299 -3 466 -8 517 -17 47 -8 77 -9 81 -3 4 5 47 8 97 7 50 -2
94 0 98 4 4 4 21 7 38 7 24 0 27 -3 16 -10 -13 -9 -13 -10 0 -9 8 1 26 5 40 9
23 7 23 8 3 9 -39 2 -53 12 -53 41 0 22 6 30 23 33 22 4 22 4 -2 6 -15 1 -21
6 -18 15 4 10 -8 15 -45 20 -28 4 -65 9 -82 11 -17 2 -8 -2 19 -10 l50 -15
-49 5 c-42 4 -47 3 -36 -10 11 -13 7 -15 -26 -14 -25 0 -33 3 -22 7 9 4 -61 7
-157 8 -97 0 -170 -3 -164 -7 23 -14 -56 -21 -165 -15 -274 15 -326 16 -326 8
0 -7 325 -26 395 -23 11 0 72 3 135 6 192 9 211 10 328 7 110 -2 112 -2 112
-26 l0 -23 -122 4 c-68 3 -153 8 -190 12 -38 4 -68 4 -68 1 0 -11 67 -20 160
-21 69 -1 79 -3 55 -10 -16 -5 -57 -7 -90 -4 -33 2 -103 8 -155 11 -52 3 -99
8 -103 11 -4 3 -98 5 -209 5 -132 0 -196 3 -187 10 10 6 4 7 -18 3 -52 -10
-125 -12 -111 -3 9 5 6 8 -10 8 -13 0 -20 -4 -17 -10 4 -6 -6 -10 -22 -10 -23
0 -25 2 -13 11 12 8 10 9 -10 5 -71 -18 -77 -14 -16 9 39 14 87 25 108 25 21
0 38 5 38 10 0 6 -9 10 -19 10 -11 0 -23 5 -26 10 -3 6 -11 10 -16 10 -6 0 -7
-4 -4 -10 4 -7 -81 -10 -247 -10 -139 0 -271 -2 -293 -5 -32 -4 -35 -3 -15 4
19 7 6 9 -52 10 -66 1 -77 -1 -71 -15 4 -11 9 -12 16 -5 6 6 27 11 46 10 29 0
32 -2 16 -9 -15 -6 -7 -9 30 -9 32 -1 45 -4 36 -10 -11 -7 -11 -9 0 -13 8 -3
20 1 27 9 14 14 25 15 132 13 36 0 90 0 120 0 42 0 51 -3 40 -11 -12 -8 -8 -9
14 -4 15 3 42 8 60 10 l31 5 -28 -12 c-16 -7 -25 -18 -23 -25 3 -7 -1 -13 -10
-13 -9 0 -12 5 -8 12 5 8 2 9 -10 5 -10 -4 -36 -9 -59 -12 -33 -4 -38 -3 -22
5 18 9 17 10 -5 5 -71 -14 -133 -18 -126 -7 9 15 3 15 -44 1 -31 -9 -47 -8
-84 4 -25 9 -46 12 -46 8 0 -4 -10 -7 -22 -7 -13 0 -49 -4 -82 -8 -46 -6 -57
-5 -50 5 5 9 2 10 -12 4 -27 -11 -296 -16 -289 -5 3 5 -7 5 -25 0 -19 -5 -28
-5 -24 1 3 6 -11 7 -38 4 -39 -5 -38 -4 20 15 34 11 62 25 62 30 0 11 -22 9
-31 -3 -3 -4 -38 -16 -78 -28 -57 -15 -80 -17 -100 -9 l-26 10 27 -5 c14 -3
37 0 50 5 l23 11 -25 -5 c-13 -3 -35 -3 -47 0 l-23 6 25 20 c15 12 32 17 43
13 14 -5 14 -7 2 -15 -26 -17 8 -11 43 6 20 11 32 13 35 6 2 -8 11 -8 28 -1
33 12 134 12 134 -1 0 -5 -6 -10 -14 -10 -8 0 -17 -4 -20 -9 -3 -5 0 -9 7 -8
56 2 97 -4 91 -14 -5 -8 -1 -8 14 0 11 6 33 11 48 11 15 0 24 3 20 7 -3 4 -26
6 -49 4 -39 -2 -41 -1 -22 13 11 9 37 16 57 16 31 0 36 -3 31 -18 -6 -16 -5
-16 13 0 10 9 33 18 49 21 35 5 -76 7 -445 8 -268 2 -484 18 -504 40 -8 9 -1
10 29 6 l40 -6 -30 14 c-35 16 -69 19 -60 5 3 -5 0 -10 -7 -10 -24 0 19 -32
53 -40 19 -4 -162 -6 -401 -5 -431 2 -496 6 -515 29 -5 7 -26 16 -46 20 -21 3
-42 13 -48 20 -6 7 -39 24 -74 36 -78 28 -87 36 -47 45 17 4 34 4 37 1 4 -3
-1 -6 -10 -6 -10 0 -17 -4 -17 -10 0 -13 10 -12 40 5 14 8 41 14 60 14 l35 -1
-32 -11 c-48 -18 -53 -30 -10 -23 21 3 45 13 53 21 18 18 18 18 68 4 30 -8 45
-8 62 2 19 9 30 10 50 1 19 -9 23 -9 18 -1 -5 9 4 10 37 4 24 -5 89 -8 144 -8
55 0 103 -4 106 -9 4 -6 22 -5 47 2 31 8 46 8 61 -2 15 -9 25 -9 47 1 18 8 30
9 37 2 6 -6 17 -7 27 -1 9 5 94 8 189 7 140 -2 174 -5 181 -17 8 -13 -3 -16
-68 -22 -44 -3 -78 -2 -80 3 -6 14 -22 10 -22 -5 0 -19 197 -18 205 2 2 6 -1
12 -8 13 -35 2 35 18 78 17 41 0 45 -2 20 -7 l-30 -7 34 -7 c18 -4 45 -7 60
-6 l26 1 -25 8 -25 7 28 8 c15 4 53 4 85 1 31 -3 105 -7 165 -7 59 -1 107 -5
107 -10 0 -5 30 -9 66 -9 40 0 63 4 59 10 -3 5 0 8 7 5 7 -3 159 -7 338 -9
1063 -13 1062 -13 1105 -35 24 -13 57 -21 85 -20 l45 1 -64 14 c-65 14 -88 24
-58 24 10 0 17 5 17 10 0 6 -7 10 -15 10 -18 0 -20 27 -2 33 23 8 -4 21 -61
29 -70 8 -151 24 -174 33 -25 10 -22 44 4 54 17 6 19 9 7 17 -8 5 -26 9 -41
10 -62 4 -144 17 -161 26 -13 7 -17 19 -15 41 l3 32 -53 3 c-34 2 -52 -1 -48
-7 4 -6 -54 -10 -160 -10 -92 -1 -171 -4 -175 -7 -5 -3 -9 -1 -9 5 0 5 -41 11
-95 13 -59 2 -95 -1 -95 -7 0 -5 -4 -5 -8 2 -5 8 -44 13 -112 16 -74 2 -54 3
68 5 134 2 177 5 187 16 13 12 0 13 -88 9 -96 -4 -194 -5 -785 -3 -134 0 -241
3 -239 8 3 4 -38 5 -91 4 -102 -4 -267 6 -258 15 3 3 29 7 58 8 37 2 47 0 33
-6 -14 -6 -7 -7 20 -3 82 12 421 7 390 -6 -19 -8 -19 -9 3 -9 13 -1 22 5 22
14 0 24 226 22 252 -2 16 -14 23 -15 38 -5 11 7 48 12 82 11 47 -1 57 -3 38
-9 -24 -8 -23 -8 8 -9 17 -1 32 4 32 9 0 6 19 10 43 9 32 0 37 -2 22 -9 -16
-7 -13 -9 18 -9 20 -1 37 4 37 9 0 7 105 10 304 10 167 -1 315 2 329 5 22 6
25 4 20 -14 -5 -18 -13 -21 -64 -21 -33 0 -59 -3 -59 -7 0 -5 43 -8 95 -9 86
0 92 1 72 15 -12 8 -24 16 -26 18 -3 2 4 9 13 16 17 13 17 14 1 30 -9 10 -21
15 -26 11 -15 -9 -99 7 -114 23 -8 8 -15 25 -15 38 0 21 -5 24 -42 27 -39 3
-43 6 -46 31 -3 24 -7 27 -41 27 -52 0 -91 20 -91 48 0 12 5 22 11 22 5 0 7 4
4 10 -3 6 -25 10 -48 10 -23 0 -53 3 -66 7 -20 5 -22 10 -18 39 5 29 3 34 -14
34 -10 0 -19 5 -19 10 0 6 -7 10 -15 10 -23 0 -21 87 3 93 16 4 16 5 0 6 -14
1 -18 10 -18 45 0 30 5 46 15 50 8 3 15 11 15 17 0 8 -4 8 -15 -1 -13 -11 -15
5 -15 137 0 82 2 152 5 154 2 3 7 106 9 230 2 123 8 273 12 332 7 102 9 109
31 118 28 10 31 23 4 14 -17 -5 -19 -2 -15 20 5 29 3 30 -62 10 -27 -8 -64
-15 -81 -15 -18 0 -33 -4 -33 -8 0 -5 -46 -19 -101 -31 -73 -17 -98 -26 -88
-33 10 -7 8 -8 -8 -3 -40 11 -140 -24 -103 -37 6 -2 7 -24 3 -56 -5 -47 -9
-55 -37 -67 l-31 -14 34 6 34 6 -6 -164 c-3 -90 -11 -218 -16 -284 -6 -66 -13
-164 -17 -218 -5 -83 -8 -96 -20 -86 -8 7 -30 9 -55 6 -38 -5 -40 -4 -46 24
-4 23 -10 28 -28 25 -24 -5 -47 6 -44 20 5 26 -3 34 -32 32 -34 -3 -52 18 -22
24 10 2 -6 10 -35 17 -47 12 -51 15 -35 26 16 12 14 14 -22 21 -45 8 -70 28
-61 49 4 12 -5 15 -50 15 -30 0 -53 3 -51 8 3 4 1 17 -4 29 -6 16 -13 20 -29
16 -12 -3 -26 1 -33 10 -9 11 -45 16 -159 22 -82 4 -148 3 -148 -2 0 -4 -39
-6 -87 -4 -72 4 -81 6 -48 11 30 5 16 8 -52 9 -75 1 -93 4 -93 16 0 9 10 15
26 15 20 0 24 4 19 19 -8 27 5 71 21 71 8 0 14 9 14 19 0 11 9 36 21 55 12 20
16 36 11 36 -6 0 -13 8 -15 18 -3 9 -6 -1 -7 -23 -1 -32 -3 -36 -10 -20 -7 16
-9 13 -9 -17 -1 -20 -8 -44 -17 -52 -19 -19 -60 -21 -67 -3 -5 10 -12 -84 -8
-105 2 -14 -27 -9 -32 5 -3 7 -5 73 -6 147 -1 74 -4 152 -8 172 -3 21 -1 44 4
50 6 7 9 24 7 38 -12 103 -11 152 2 157 8 3 21 18 30 34 19 37 10 38 -10 2 -8
-16 -15 -23 -15 -18 -1 6 13 33 29 60 16 28 30 44 30 36 0 -8 8 -4 21 10 l21
24 -15 -25 c-8 -14 -20 -24 -25 -23 -6 1 -12 -4 -15 -11 -9 -24 21 -11 48 20
14 16 25 33 25 37 0 5 5 5 10 2 6 -3 10 3 10 14 0 12 5 21 11 21 5 0 8 -4 5
-8 -2 -4 -1 -14 5 -22 7 -12 9 -9 9 10 0 25 20 67 20 43 0 -7 5 -13 11 -13 6
0 9 9 6 20 -5 20 29 50 58 50 9 0 20 10 25 23 7 18 9 18 9 4 1 -24 21 -11 21
14 0 21 16 26 23 7 3 -8 6 -7 6 4 1 22 21 34 31 18 6 -9 10 -7 15 9 3 12 15
21 25 21 11 0 24 9 31 21 7 14 17 19 30 16 13 -4 19 0 19 11 0 10 15 24 33 32
17 8 31 21 29 28 -1 8 2 11 8 7 5 -3 10 -1 10 5 0 7 7 10 15 6 8 -3 15 -1 15
4 0 6 7 10 15 10 8 0 15 6 15 13 0 8 4 7 10 -3 8 -12 10 -11 10 7 0 12 5 25
12 29 8 5 9 2 5 -10 -4 -10 -10 -29 -13 -43 -5 -18 -9 -21 -15 -11 -6 9 -9 7
-9 -9 0 -12 -3 -28 -6 -37 -3 -9 -2 -16 3 -16 5 0 15 17 23 38 9 25 15 31 18
20 5 -24 19 -23 32 1 15 29 12 38 -5 15 -13 -18 -14 -18 -15 -1 0 20 41 97 53
97 4 0 7 -42 8 -92 1 -51 3 -160 5 -243 2 -82 0 -174 -5 -202 -4 -29 -5 -53
-1 -53 4 0 33 9 65 20 31 11 61 17 65 15 5 -3 11 -1 14 4 4 5 42 21 87 36 44
15 78 29 76 31 -2 2 -37 -7 -77 -21 -40 -14 -75 -25 -77 -25 -2 0 -3 9 -3 20
0 11 3 20 8 20 4 0 13 10 21 23 14 22 14 22 -8 3 -21 -19 -21 -19 -21 7 0 19
13 37 45 63 34 29 42 41 33 51 -6 7 -9 13 -7 14 24 5 37 8 54 14 l20 8 -20
-18 c-19 -16 -19 -16 8 0 33 19 46 13 26 -12 -13 -17 -13 -17 7 0 21 18 84 24
84 8 0 -9 -22 -31 -70 -71 -15 -13 -8 -10 18 6 23 15 42 31 42 36 0 5 5 6 10
3 6 -4 9 -1 8 6 -2 6 3 14 11 17 8 2 11 0 7 -6 -4 -7 3 -8 24 -2 39 11 39 -1
-2 -56 -23 -31 -48 -49 -83 -63 -47 -19 -48 -20 -15 -17 38 3 80 24 80 41 1
26 67 85 100 90 35 6 35 6 10 -9 -30 -19 -20 -20 32 -4 27 8 42 8 49 1 8 -8
-18 -20 -86 -43 -53 -18 -95 -34 -92 -36 2 -2 43 9 91 26 48 16 93 26 102 23
8 -3 20 -1 27 5 10 8 241 92 282 102 6 1 20 6 32 11 12 4 48 15 80 24 32 9 66
20 75 25 10 6 38 8 63 6 27 -3 43 -1 40 5 -4 5 -13 9 -21 9 -41 0 49 45 131
66 l25 6 0 -74 c0 -41 -3 -78 -7 -82 -4 -4 -6 -57 -5 -117 3 -88 0 -116 -13
-135 -8 -13 -12 -24 -8 -24 5 0 7 -26 6 -57 0 -32 1 -44 4 -28 2 17 10 37 17
45 26 30 30 45 7 25 l-22 -19 7 29 c3 17 14 39 23 49 9 11 10 16 4 12 -17 -10
-18 45 -1 62 9 9 9 12 0 12 -15 0 -16 66 -1 76 8 5 7 9 -1 14 -8 5 -10 15 -5
26 5 11 7 23 6 27 -1 5 27 38 61 73 35 36 65 69 66 74 2 6 17 10 33 10 29 0
29 0 29 -59 0 -42 -5 -64 -17 -76 -16 -16 -16 -18 1 -27 16 -9 15 -13 -10 -46
-15 -20 -21 -31 -14 -24 20 17 35 15 20 -3 -9 -11 -9 -15 -1 -15 8 0 6 -11 -5
-32 -16 -30 -16 -32 -1 -19 15 12 17 10 17 -14 0 -16 -8 -37 -17 -47 -16 -18
-16 -18 2 -12 17 7 18 2 13 -60 -4 -45 -12 -74 -24 -89 l-19 -22 23 19 22 19
0 -30 c0 -17 -10 -43 -22 -59 -14 -18 -16 -24 -5 -15 15 12 17 11 17 -11 0
-14 -9 -33 -20 -43 -11 -10 -20 -23 -20 -28 0 -6 9 -2 20 8 20 18 20 17 20
-12 0 -17 -7 -36 -15 -43 -8 -7 -15 -17 -15 -23 0 -6 7 -2 15 9 14 18 14 17
15 -12 0 -16 -5 -35 -12 -42 -8 -8 -8 -12 -1 -12 11 0 3 -56 -12 -80 -5 -9 -4
-11 3 -6 16 9 15 -7 0 -22 -9 -9 -9 -12 2 -12 8 0 0 -14 -20 -35 -18 -19 -31
-37 -28 -41 4 -3 14 6 24 21 22 33 34 18 34 -45 0 -36 -6 -50 -32 -77 -18 -18
-27 -33 -21 -33 6 0 16 7 23 15 10 13 15 13 21 3 4 -7 3 -18 -3 -25 -14 -18 2
-16 22 2 10 9 41 15 95 16 94 1 117 -6 114 -35 -1 -11 1 -29 5 -38 4 -9 2 -26
-4 -38 -9 -17 -8 -25 4 -39 9 -10 16 -23 16 -30 0 -7 5 -9 10 -6 6 3 10 18 10
33 0 21 -3 24 -10 12 -8 -12 -10 -12 -15 3 -4 10 2 32 14 52 12 20 21 43 21
51 0 8 6 14 14 14 7 0 19 7 26 15 15 18 60 20 60 2 0 -7 -6 -19 -12 -27 -7 -8
-2 -6 12 3 51 35 68 41 85 27 27 -22 17 -33 -26 -27 -39 5 -40 5 -23 -14 16
-18 16 -20 0 -38 -14 -16 -15 -23 -6 -41 6 -12 9 -28 6 -36 -7 -19 4 -18 20 4
16 20 18 46 4 37 -23 -14 -31 8 -10 30 12 13 19 28 15 34 -4 7 3 11 17 11 14
0 30 11 43 30 19 28 25 30 85 31 36 1 57 3 48 6 -9 2 -15 10 -12 17 3 8 -4 16
-17 19 -17 5 -20 10 -14 29 31 97 11 123 -83 114 -54 -6 -64 -4 -59 8 3 8 -3
22 -13 31 -18 16 -18 19 -3 42 16 24 16 26 -7 45 -13 10 -29 17 -35 14 -15 -5
-7 41 8 51 6 3 7 1 3 -5 -4 -7 -2 -12 4 -12 7 0 9 8 5 21 -4 13 0 27 11 40 18
20 6 27 -14 7 -9 -9 -12 -7 -12 9 0 14 8 24 23 29 23 7 34 4 29 -8 -1 -5 3 -8
9 -8 5 0 7 -5 3 -11 -5 -8 -1 -8 14 0 30 16 67 14 83 -5 12 -14 9 -21 -25 -48
l-38 -32 26 -39 c34 -50 33 -57 -11 -49 l-37 7 20 -34 c15 -26 28 -35 52 -37
24 -2 32 1 32 12 0 13 10 16 48 14 44 -2 112 19 112 34 0 4 -19 1 -41 -7 -23
-8 -66 -15 -96 -15 -48 0 -54 -2 -43 -15 19 -23 -22 -20 -43 3 -24 26 -21 32
12 26 41 -8 43 5 10 54 l-29 43 35 30 c44 39 44 56 -1 75 -27 12 -34 19 -30
34 3 11 9 29 12 40 3 11 0 35 -7 54 -14 40 -3 62 34 69 22 4 22 4 0 6 -13 0
-32 -8 -42 -18 -18 -18 -20 -18 -24 -3 -4 13 -5 12 -6 -4 0 -12 8 -33 19 -47
21 -26 27 -53 10 -42 -5 3 -10 -2 -10 -13 0 -22 -42 -48 -60 -37 -9 6 -9 10 1
16 11 7 10 9 -5 9 -13 0 -17 -5 -13 -20 3 -13 -1 -24 -14 -30 -14 -8 -19 -22
-19 -50 0 -22 -3 -40 -7 -40 -9 0 -8 75 3 238 3 56 9 102 14 102 22 0 32 -31
22 -71 -8 -30 -7 -38 0 -31 21 21 20 77 -2 97 -28 25 -25 41 10 54 30 10 38
25 20 36 -6 3 -7 -1 -4 -9 3 -9 2 -16 -4 -16 -6 0 -17 -3 -26 -6 -13 -5 -16 1
-16 26 0 29 2 31 17 19 15 -13 15 -12 2 9 -12 20 -12 24 1 32 12 7 11 9 -6 8
-19 -2 -22 -12 -34 -158 -7 -85 -16 -247 -20 -360 -5 -113 -9 -206 -9 -208 -1
-1 -12 5 -26 14 -15 10 -38 15 -60 12 l-35 -4 -1 71 c0 38 -3 62 -7 53 -4 -9
-20 -26 -35 -38 -15 -12 -26 -25 -23 -28 4 -3 -2 -15 -11 -26 -10 -12 2 -3 25
19 l42 39 0 -55 c0 -43 -4 -57 -20 -67 -23 -14 -27 0 -5 18 8 7 15 17 15 23 0
7 -4 7 -12 -1 -24 -24 -31 -12 -8 13 28 30 18 33 -17 5 -14 -11 -29 -17 -33
-15 -5 3 -11 1 -15 -5 -3 -5 -11 -10 -16 -10 -6 0 -8 4 -4 9 10 17 -12 21 -25
6 -7 -8 -17 -15 -23 -15 -6 0 6 18 28 40 21 21 41 37 45 35 4 -2 27 17 51 42
43 44 37 51 -8 10 -13 -11 -23 -16 -23 -12 0 5 -27 -17 -60 -50 -33 -32 -62
-56 -65 -53 -10 10 7 37 41 63 19 15 32 30 30 34 -3 4 26 39 64 76 58 58 70
66 70 47 0 -12 -3 -22 -7 -22 -5 0 -26 -17 -49 -38 -22 -20 -32 -31 -22 -23
10 8 18 10 18 6 0 -5 13 4 29 19 l29 28 5 -28 c2 -16 5 32 6 106 0 91 5 140
13 148 9 9 9 12 -1 12 -10 0 -9 7 4 26 9 15 12 23 6 19 -15 -9 -8 198 8 238
13 33 11 34 -127 70 l-87 23 -3 72 c-2 48 1 72 8 72 6 0 9 4 6 8 -3 5 -60 8
-128 8 -119 -1 -126 -2 -214 -39 l-92 -38 -253 52 c-140 28 -301 62 -359 74
-296 64 -357 77 -381 82 -26 5 -27 3 -39 -67 -9 -52 -9 -74 -1 -79 7 -5 9 -56
7 -156 -2 -83 -4 -173 -5 -202 l-1 -51 -47 -16 c-26 -9 -50 -16 -55 -16 -4 0
-9 240 -10 533 -2 292 -4 430 -5 305 l-3 -226 -33 -7 c-32 -7 -146 -49 -179
-66 -10 -5 -29 -9 -42 -9 -13 0 -26 -4 -28 -9 -1 -6 -25 -16 -53 -23 -27 -7
-52 -15 -55 -19 -7 -8 -349 -129 -527 -187 -78 -25 -140 -49 -138 -53 3 -4 -3
-5 -12 -3 -10 3 -121 -31 -246 -76 -126 -44 -256 -84 -290 -90 -35 -5 -96 -21
-137 -35 -40 -14 -86 -25 -101 -25 -26 0 -26 1 -22 48 3 26 12 54 19 63 19 21
18 35 -1 19 -12 -10 -14 -6 -14 26 1 68 9 94 29 94 11 0 30 5 44 11 19 9 29 9
40 0 11 -9 14 -8 12 4 -1 12 41 36 142 82 78 36 141 68 139 70 -2 2 -54 -20
-116 -49 -133 -61 -134 -61 -127 57 3 44 6 94 6 110 1 28 9 35 102 85 120 66
126 68 113 49 -5 -8 1 -2 15 13 14 16 29 28 33 28 4 0 7 -50 6 -111 -1 -60 2
-113 5 -116 5 -6 11 153 6 186 -6 44 12 60 152 139 201 113 218 121 234 115 8
-3 14 0 14 6 0 14 61 52 72 45 4 -3 5 2 2 10 -3 9 -1 16 4 16 6 0 26 10 45 23
18 12 60 36 93 52 32 17 61 33 64 36 3 3 15 11 26 17 21 11 21 9 18 -36 l-3
-47 9 49 c5 27 12 52 17 56 9 9 274 150 281 150 2 0 3 -86 0 -191 -4 -188 -4
-191 -28 -210 l-25 -20 28 13 c23 9 30 9 36 -1 5 -7 11 106 14 251 3 145 8
275 11 289 3 14 0 33 -7 43 -12 16 -14 16 -26 2z m-1541 -1291 c-7 -8 -16 -12
-21 -9 -5 3 -8 2 -7 -3 3 -10 -120 -128 -127 -121 -3 3 15 22 40 43 25 20 44
39 41 42 -3 3 -27 -14 -54 -38 -43 -36 -48 -44 -36 -56 8 -8 14 -19 14 -25 0
-6 8 -4 18 5 10 10 22 14 25 10 4 -3 7 -2 7 3 0 5 14 18 30 27 32 19 42 44 13
33 -10 -4 6 18 36 48 30 31 57 53 60 51 2 -3 -14 -21 -37 -41 -23 -19 -42 -41
-42 -47 0 -6 16 4 35 23 19 18 37 31 40 29 9 -10 -144 -151 -156 -143 -8 4 -9
3 -5 -5 4 -6 12 -9 17 -6 5 4 9 -1 9 -9 0 -21 -16 -20 -24 0 -4 11 -10 13 -19
6 -18 -14 -46 -11 -40 5 3 7 10 13 16 13 6 0 7 3 4 6 -4 4 -22 -5 -42 -20 -42
-32 -46 -27 -8 9 15 14 23 25 17 25 -6 0 -23 -13 -38 -29 -20 -21 -38 -29 -59
-29 l-30 1 37 34 c20 19 41 31 46 28 5 -3 46 24 92 60 46 36 88 63 95 61 7 -3
12 0 10 7 -1 7 6 12 15 12 9 0 20 4 24 8 13 13 17 7 4 -8z m-72 -12 c-5 -7
-14 -11 -18 -8 -5 3 -11 1 -15 -5 -4 -6 -11 -7 -17 -4 -7 4 -8 2 -4 -4 7 -11
-32 -38 -47 -34 -5 1 -6 -2 -3 -7 6 -10 -49 -54 -71 -57 -7 -1 -36 -20 -64
-43 l-50 -40 48 -4 c43 -3 41 -4 -16 -5 -62 -2 -64 -1 -47 17 27 29 0 38 -32
10 -15 -13 -21 -17 -14 -9 22 26 13 34 -12 10 -14 -12 -32 -20 -40 -17 -9 4
-18 2 -21 -3 -4 -6 -11 -10 -16 -10 -16 0 -3 15 54 62 28 23 46 35 38 25 -19
-24 2 -22 24 3 10 11 15 20 10 20 -4 0 -2 7 5 15 7 8 17 12 22 9 11 -7 59 36
53 47 -3 4 0 11 6 15 8 4 9 3 5 -4 -11 -17 2 -15 43 9 34 20 34 19 -12 -23
-26 -25 -44 -48 -40 -51 3 -4 30 16 60 44 41 39 60 50 78 47 13 -3 30 -1 37 3
7 5 25 8 40 7 21 -2 25 -5 16 -15z m-1431 -120 c2 -5 20 -7 41 -5 l37 5 -20
-24 c-52 -63 -83 -92 -117 -110 -21 -11 -38 -23 -38 -28 0 -13 -93 -32 -104
-21 -14 14 17 82 65 145 44 55 44 56 89 51 24 -2 46 -8 47 -13z m5142 -49
c-49 -50 -42 -61 8 -12 28 28 33 29 33 12 0 -10 -23 -41 -52 -68 -29 -27 -44
-43 -33 -35 11 7 32 24 47 38 15 13 31 21 35 17 11 -11 -86 -98 -100 -89 -6 3
-7 1 -3 -5 4 -7 3 -12 -2 -12 -5 0 -28 -19 -52 -42 -27 -25 -46 -36 -48 -29
-2 7 20 35 49 62 l54 50 -45 -31 -45 -32 -3 33 c-4 36 -10 29 145 166 61 53
70 36 12 -23z m-3318 -46 l1 -33 8 30 c6 23 8 25 9 8 0 -12 4 -30 8 -40 5 -14
10 -7 19 27 l12 45 2 -35 c2 -33 3 -33 10 -10 6 19 9 9 11 -40 l3 -65 6 75 6
75 1 -80 c1 -76 -12 -159 -17 -110 -2 17 -3 16 -10 -5 -4 -14 -8 -34 -9 -45
-1 -16 1 -17 9 -5 9 13 10 13 10 0 1 -12 3 -11 11 3 6 10 13 67 16 127 3 61
10 110 14 110 5 0 10 -15 11 -32 l1 -33 4 33 c5 35 22 35 24 -1 1 -17 3 -15 9
8 8 30 8 30 9 -7 0 -21 6 -38 11 -38 6 0 10 -5 10 -11 0 -5 -4 -8 -9 -5 -5 3
-11 -7 -13 -24 -2 -16 -1 -27 4 -24 14 9 9 -13 -6 -25 -11 -9 -15 -9 -19 1 -3
7 -6 3 -6 -10 -1 -14 3 -21 10 -17 7 5 9 -3 6 -24 -3 -17 -2 -33 3 -36 4 -2 7
12 7 33 0 21 4 45 9 53 5 8 10 23 11 34 2 11 7 45 12 75 8 51 8 48 9 -45 1
-55 -2 -134 -7 -175 -4 -41 -5 -109 -1 -150 3 -41 3 -102 1 -135 l-6 -60 -6
50 -6 50 -1 -47 c-1 -27 -6 -48 -12 -48 -5 0 -10 6 -10 13 0 6 -5 4 -11 -5
-16 -28 -39 -22 -40 10 l0 27 -11 -25 -11 -25 -7 30 c-7 29 -8 29 -9 4 -1 -24
-26 -58 -35 -48 -12 13 -46 91 -46 104 0 9 -7 23 -15 32 -9 8 -13 23 -10 33 6
18 -19 35 -36 24 -5 -3 -9 0 -9 6 0 7 -8 9 -20 5 -15 -5 -20 -2 -21 12 -1 15
-2 16 -6 1 -2 -9 -11 -19 -19 -22 -10 -4 -14 2 -15 22 l-1 27 -8 -30 c-7 -28
-8 -29 -10 -5 l-2 25 -8 -25 c-7 -21 -8 -22 -10 -5 -1 19 -2 18 -10 -3 -9 -21
-14 -22 -127 -22 -65 0 -136 -2 -158 -4 -22 -3 -121 -7 -220 -11 -99 -3 -190
-9 -202 -12 -15 -3 -23 -1 -23 8 0 11 -2 11 -8 1 -6 -9 -32 -11 -98 -8 -49 2
-106 5 -126 5 -34 1 -38 4 -39 29 l-1 27 -10 -27 c-5 -16 -14 -28 -19 -28 -6
0 -8 -4 -5 -9 4 -5 -3 -7 -14 -4 -11 3 -20 14 -20 24 0 10 -4 21 -10 24 -6 4
-9 -3 -7 -17 2 -26 -30 -38 -44 -16 -6 10 -9 10 -9 1 0 -20 -40 -16 -41 5 0
14 -3 13 -16 -5 -9 -13 -26 -23 -39 -23 -18 0 -24 6 -25 23 l-2 22 -4 -22 c-4
-20 -10 -22 -84 -21 l-79 0 0 29 c0 15 -3 30 -8 33 -4 2 -6 -13 -4 -33 4 -37
3 -38 -35 -44 -41 -5 -189 -2 -263 6 -44 5 -44 5 -5 -2 l40 -8 -35 -3 c-19 -2
3 -7 50 -10 81 -6 79 -6 -40 -7 -80 0 -110 2 -85 7 l40 7 -35 2 c-29 2 -32 4
-15 11 17 7 16 9 -10 10 -16 2 -35 2 -42 1 -26 -3 -22 21 9 66 l33 48 3 -38
c2 -20 7 -35 12 -32 4 3 19 1 32 -4 17 -6 27 -4 37 7 13 13 15 13 22 -4 7 -18
8 -18 8 -1 1 11 17 37 36 60 28 32 35 49 35 82 0 22 -5 46 -12 53 -6 6 -12 23
-14 37 -2 21 0 23 11 12 7 -7 15 -22 18 -33 2 -10 5 -2 6 19 1 31 -2 37 -20
37 -14 0 -19 5 -17 18 2 12 14 18 38 19 19 1 29 0 22 -3 -27 -12 2 -24 61 -26
l62 -1 -60 -6 -60 -6 45 -24 c25 -12 41 -19 37 -15 -5 5 26 14 70 20 51 7 65
12 41 13 -33 1 -38 4 -38 26 0 29 29 36 31 8 1 -17 2 -17 6 0 5 19 43 24 43 5
0 -10 2 -10 8 -1 7 11 58 18 155 22 10 1 15 6 12 11 -3 6 1 10 9 10 9 0 17 -8
17 -17 1 -14 2 -15 5 -3 4 12 15 14 46 12 28 -3 39 -1 34 7 -12 18 26 13 40
-6 8 -11 13 -13 14 -5 0 7 15 12 40 12 22 0 40 4 40 10 0 5 26 7 66 3 44 -4
68 -2 73 5 10 16 51 3 52 -17 1 -14 2 -13 6 2 3 12 15 17 39 17 19 0 34 5 34
11 0 7 14 8 41 4 30 -5 44 -3 50 6 7 11 12 12 29 1 11 -7 20 -8 20 -3 0 11 59
9 78 -2 7 -5 12 -4 12 2 0 6 11 11 25 11 14 0 25 -6 25 -12 0 -10 2 -10 8 -1
9 14 48 20 178 28 82 5 91 4 91 -12 0 -10 -5 -24 -11 -32 -8 -10 -1 -9 24 4
44 22 52 30 23 21 -18 -6 -22 -4 -17 8 4 10 18 16 38 16 24 0 27 -3 16 -10 -9
-6 -10 -10 -3 -10 6 0 14 -8 16 -17 4 -14 5 -12 6 5 0 12 6 22 11 22 6 0 10
-10 11 -22 0 -13 5 -32 10 -43 6 -14 8 -4 6 37 -2 31 0 55 5 52 4 -3 8 -15 9
-27 0 -12 3 -16 6 -9 7 17 73 -47 73 -71 0 -12 5 -17 13 -14 7 3 23 -6 36 -19
18 -19 27 -22 37 -13 16 13 19 39 5 39 -5 0 -12 -10 -14 -22 l-4 -23 -8 22
c-4 11 -15 23 -26 26 -23 6 -25 35 -4 43 8 4 13 10 10 14 -7 12 6 70 16 70 5
0 9 -15 9 -34 0 -19 5 -38 10 -41 6 -4 10 12 10 39 0 52 19 64 21 14z m2525
-40 c-3 -18 -9 -135 -12 -260 -4 -126 -10 -228 -13 -228 -4 0 -12 5 -19 12
-19 19 -14 -3 6 -25 13 -16 14 -19 2 -15 -8 2 -23 21 -33 41 -21 43 -29 44
-81 18 -21 -11 -43 -18 -49 -16 -7 3 -20 -2 -31 -10 -15 -11 -18 -23 -13 -54
6 -51 -15 -86 -44 -71 -16 9 -19 22 -19 75 0 35 4 67 10 70 5 3 15 16 20 28
11 21 11 21 -4 3 -21 -27 -33 -12 -19 24 6 17 7 28 2 24 -6 -3 -7 26 -4 78 11
159 17 208 25 213 4 3 6 14 3 24 -4 16 3 22 39 31 23 6 84 24 133 40 50 16 94
29 99 29 4 1 5 -14 2 -31z m-387 -45 c-4 -22 3 -25 17 -7 15 18 15 18 10 -6
-5 -24 -4 -24 9 -6 8 11 15 15 15 8 0 -6 9 -9 21 -7 17 3 19 0 13 -18 -3 -12
-12 -28 -18 -36 -8 -11 -8 -13 1 -7 10 5 12 -18 9 -101 -12 -368 -11 -423 3
-418 20 8 52 -5 45 -17 -4 -5 5 -2 20 7 28 19 26 20 42 -33 6 -19 44 -5 74 26
l25 26 -25 -20 c-28 -23 -65 -21 -56 2 3 8 2 12 -3 9 -5 -3 -12 -1 -16 5 -4 6
16 10 54 10 56 0 76 -10 51 -25 -15 -9 -12 -25 5 -25 20 0 19 -14 -1 -35 -18
-18 -18 -18 13 -34 14 -7 24 -8 28 -1 3 5 10 10 14 10 12 0 0 -142 -13 -159
-8 -11 -8 -13 2 -7 13 8 17 -31 4 -50 -4 -7 -54 -15 -116 -19 -90 -6 -107 -5
-101 6 6 11 5 12 -6 2 -14 -14 -59 -18 -59 -5 0 4 3 12 8 18 4 5 -1 1 -10 -9
-13 -14 -29 -17 -75 -15 -53 3 -58 5 -61 28 -3 20 -2 22 11 12 11 -10 17 -9
28 5 9 11 10 14 2 9 -17 -9 -16 3 2 34 23 40 17 44 -11 10 -20 -24 -29 -28
-35 -18 -12 18 -11 28 2 25 6 -1 15 9 20 23 9 24 8 24 -6 6 -17 -23 -17 -28
-15 93 1 77 5 99 21 119 10 14 19 29 19 35 0 6 -7 2 -15 -9 -14 -19 -14 -19
-15 3 0 12 5 25 10 28 6 3 10 11 10 16 0 6 -4 7 -10 4 -11 -7 -2 50 12 79 7
13 7 16 -1 12 -14 -9 -14 -4 -1 28 5 14 6 26 1 26 -12 0 -2 39 17 68 8 12 12
25 9 29 -4 3 -2 15 4 27 10 20 9 20 -5 2 -9 -10 -13 -23 -10 -27 3 -5 0 -17
-5 -26 -8 -14 -10 -6 -11 34 0 28 4 55 10 58 6 4 7 -1 3 -12 -3 -10 -3 -15 2
-11 4 4 9 19 11 33 2 22 0 24 -12 14 -21 -17 -18 9 6 49 21 34 17 44 -6 15
-13 -16 -14 -16 -10 7 6 33 23 87 31 100 7 12 16 13 14 3z m-4075 -161 l-17
-27 29 26 c43 38 59 33 58 -22 0 -68 -43 -117 -110 -126 -60 -8 -53 51 20 175
16 29 20 31 28 17 7 -11 4 -24 -8 -43z m1814 -211 c-3 -18 0 -29 6 -28 6 1 11
-7 12 -18 1 -11 4 -27 7 -35 11 -31 15 -60 7 -55 -5 3 -11 1 -15 -5 -3 -5 -1
-10 4 -10 6 0 11 -12 11 -26 0 -14 4 -23 10 -19 6 3 10 -1 10 -10 0 -22 98
-321 167 -509 30 -82 57 -163 60 -180 3 -17 13 -44 21 -61 14 -28 16 -101 8
-255 -4 -61 -24 -202 -31 -208 -2 -2 -22 11 -44 29 -31 24 -41 40 -42 63 -1
25 -3 26 -6 8 l-5 -23 -27 28 c-15 15 -42 41 -61 57 -25 20 -38 43 -46 75 -7
25 -13 37 -14 26 -1 -11 -8 3 -15 30 l-13 50 -1 -48 c-1 -34 -5 -47 -13 -44
-7 2 -12 17 -11 33 1 22 0 23 -4 6 -4 -19 -7 -21 -19 -11 -16 13 -20 44 -4 34
6 -4 10 7 10 27 0 25 -3 29 -10 18 -8 -12 -10 -12 -10 5 -1 19 -1 19 -11 2 -6
-10 -8 -25 -5 -33 3 -8 1 -14 -5 -14 -15 0 -39 63 -28 75 11 11 12 45 1 45 -4
0 -6 18 -4 40 4 38 3 40 -23 40 -22 0 -26 4 -22 19 3 13 -2 21 -17 26 -20 7
-20 8 4 12 14 3 30 9 35 15 7 6 0 7 -20 2 -25 -6 -28 -5 -18 7 6 8 9 27 5 44
l-6 30 -6 -27 c-3 -20 -9 -25 -18 -19 -20 12 -5 101 17 101 14 1 14 2 -1 11
-22 12 -24 39 -3 39 8 0 15 5 15 10 0 6 -7 10 -15 10 -8 0 -15 5 -15 11 0 5 3
8 8 6 4 -2 15 5 25 15 17 18 16 19 -8 28 -23 9 -25 15 -25 65 0 53 1 55 28 56
l27 1 -30 8 c-19 5 -23 8 -10 9 15 1 16 4 7 13 -18 18 -15 84 5 104 13 13 14
19 5 22 -16 5 -16 42 1 42 9 0 9 2 -1 9 -12 7 -11 63 3 158 2 13 -1 25 -6 28
-5 4 -9 15 -9 26 0 16 3 18 19 9 11 -5 21 -6 23 -1 2 4 13 12 26 15 17 6 22 3
23 -11 1 -17 2 -17 6 1 4 15 7 16 14 5 7 -11 9 -11 9 3 0 14 11 20 54 27 4 0
6 -12 4 -28z m3645 -29 c-2 -18 1 -20 30 -11 17 5 50 9 72 10 31 0 36 2 20 9
-17 7 -16 9 10 9 17 0 37 -4 45 -9 13 -8 13 -10 -2 -10 -29 0 -69 -20 -63 -30
4 -6 12 -4 21 5 18 18 50 20 60 4 3 -6 1 -29 -7 -51 -11 -36 -11 -41 4 -50 35
-19 15 -28 -58 -26 -61 1 -72 4 -64 15 14 16 53 18 43 1 -4 -7 -3 -8 4 -4 19
11 14 33 -8 39 -11 3 -28 19 -37 35 -14 25 -22 30 -44 25 -18 -3 -28 0 -32 11
-4 9 -13 13 -22 10 -8 -3 -15 -1 -15 6 0 6 5 8 10 5 6 -3 10 3 10 15 0 13 5
20 13 17 6 -2 11 -13 10 -25z m-4288 -50 c78 -6 85 -9 56 -16 -30 -7 -32 -10
-16 -19 14 -7 20 -7 23 1 2 7 17 12 33 12 22 0 28 4 23 13 -6 9 -4 9 8 -1 11
-9 18 -10 23 -2 3 5 18 9 33 9 24 -2 24 -2 4 -6 -18 -4 -20 -7 -9 -17 25 -25
165 -14 159 13 -1 7 15 11 45 10 43 -1 45 -2 18 -9 l-30 -8 30 -2 c30 -2 30
-2 5 -10 -24 -8 -24 -8 -2 -9 12 -1 22 -5 22 -10 0 -6 -58 -10 -132 -10 -73 0
-221 -5 -328 -10 -297 -15 -861 -33 -895 -29 -26 4 -30 9 -33 40 l-3 35 68 6
c37 4 167 11 288 17 121 6 240 12 265 13 65 3 241 -2 345 -11z m-975 -62 l0
-40 -47 1 c-43 1 -45 2 -18 9 30 8 30 8 -7 9 -21 0 -38 -3 -38 -7 0 -5 -24 -7
-54 -4 -33 3 -56 0 -60 -7 -9 -14 -103 -15 -111 -1 -3 6 -2 10 4 10 6 0 8 6 5
13 -3 8 2 14 11 14 8 0 15 -9 15 -19 0 -19 15 -24 25 -8 3 6 1 10 -4 10 -6 0
-11 5 -11 10 0 6 12 10 26 10 22 0 24 2 14 15 -10 12 3 15 97 18 59 1 118 4
131 5 19 2 22 -3 22 -38z m1244 -40 c66 0 123 3 127 6 4 2 10 0 13 -4 3 -5
-52 -12 -123 -15 -70 -4 -143 -10 -162 -14 -32 -6 -33 -7 -9 -13 14 -4 38 -3
54 1 16 5 36 4 46 -1 12 -7 46 -5 102 5 109 19 108 19 108 -13 0 -24 -6 -29
-43 -40 -26 -8 -89 -13 -153 -12 -263 4 -624 -1 -624 -7 0 -5 102 -8 227 -8
172 0 227 -3 231 -12 2 -7 10 -13 18 -13 9 0 12 5 9 10 -4 6 45 11 139 12 80
1 156 2 168 2 12 1 23 -5 26 -11 2 -7 -3 -13 -11 -13 -9 0 -17 5 -19 11 -3 8
-13 7 -33 -4 l-30 -16 48 -1 c26 0 47 -4 47 -10 0 -5 -8 -11 -17 -11 -17 -1
-17 -2 0 -6 24 -6 21 -30 -4 -38 -12 -4 -107 -6 -213 -4 -105 1 -348 -1 -541
-6 -192 -5 -411 -10 -485 -10 l-135 0 -3 41 c-3 41 -3 41 35 47 21 3 99 9 173
13 74 3 151 7 170 9 19 1 71 3 114 4 44 0 76 4 72 8 -8 9 -152 5 -306 -7 -63
-5 -148 -10 -189 -10 l-73 0 6 38 c14 75 -7 68 244 76 125 4 303 10 397 12 93
3 171 7 175 11 3 3 73 2 155 -2 83 -4 204 -6 269 -5z m-1238 -36 c-3 -8 -9
-33 -12 -55 l-7 -39 -108 0 c-59 0 -119 4 -134 10 -14 5 -24 6 -21 1 3 -5 -9
-7 -27 -5 -17 1 -35 3 -39 3 -6 1 0 59 6 68 10 14 135 31 230 32 105 2 118 0
112 -15z m1808 -1 c3 -10 9 -24 12 -30 3 -8 -1 -13 -11 -13 -9 0 -14 -4 -10
-9 3 -5 -3 -11 -12 -14 -10 -2 -2 -2 18 0 28 3 38 0 43 -14 6 -15 9 -15 17 -3
8 12 10 12 7 1 -2 -8 -21 -15 -43 -18 -65 -5 -91 -13 -76 -23 8 -4 10 -13 7
-19 -4 -6 -1 -11 7 -11 8 0 14 8 13 17 -1 20 25 28 62 17 l27 -7 -30 -7 c-29
-7 -29 -8 8 -9 52 -1 38 -18 -23 -26 -57 -8 -58 -25 -2 -24 30 0 33 2 17 9
-16 7 -13 9 17 9 39 1 60 -14 31 -22 -14 -4 -13 -5 5 -6 12 0 22 -7 22 -15 0
-8 -10 -17 -22 -19 -17 -3 -14 -5 10 -6 34 -1 47 -30 15 -32 -17 -1 -17 -2 0
-6 9 -2 15 -9 12 -14 -4 -5 1 -9 9 -9 10 0 13 -6 9 -16 -5 -14 -2 -16 21 -10
26 6 26 6 8 -12 -11 -11 -26 -22 -33 -25 -8 -3 -2 -6 14 -6 20 -1 31 -8 39
-28 7 -16 25 -47 41 -71 15 -23 25 -47 22 -52 -3 -6 1 -10 10 -10 11 0 15 -5
11 -15 -3 -9 0 -15 10 -15 12 0 12 -4 4 -20 -7 -12 -21 -20 -37 -20 -14 0 -24
-3 -20 -6 11 -11 78 6 71 18 -4 7 -3 8 4 4 7 -4 12 -12 12 -18 0 -6 7 -19 16
-29 15 -17 15 -19 0 -34 -21 -22 -20 -28 3 -22 23 6 38 -22 19 -36 -10 -6 -9
-7 4 -4 19 7 34 -23 17 -34 -6 -3 -58 -7 -115 -8 -94 -1 -103 1 -109 19 -3 11
-4 24 -1 29 3 5 -1 11 -9 15 -23 8 -18 26 8 27 20 1 20 2 -5 12 -26 10 -58 70
-44 84 3 3 -2 12 -10 20 -8 9 -13 20 -11 27 2 6 -3 17 -10 25 -8 7 -12 20 -9
27 3 8 1 14 -4 14 -6 0 -10 17 -10 37 0 20 -3 33 -7 29 -4 -3 -12 6 -19 21 -8
17 -13 22 -13 12 -1 -9 6 -30 14 -45 17 -33 20 -63 6 -48 -13 13 -73 193 -69
206 2 6 10 -9 18 -33 7 -24 17 -48 22 -54 12 -13 5 24 -9 50 -6 11 -18 44 -27
73 -10 28 -21 50 -24 48 -4 -2 -7 6 -7 17 -1 12 -4 34 -8 49 -6 23 -5 25 15
20 14 -3 19 -2 14 6 -4 7 -16 12 -27 12 -10 0 -19 5 -19 10 0 6 15 10 33 10
17 0 40 7 50 14 16 12 16 14 1 20 -23 9 -36 7 -29 -4 4 -6 -1 -7 -11 -3 -14 5
-13 8 7 19 l24 13 -27 1 c-15 0 -30 -5 -33 -11 -4 -6 -13 -8 -20 -5 -8 3 -16
1 -19 -5 -2 -5 -3 -4 -2 3 3 14 37 26 82 27 22 1 34 -5 38 -16z m-1909 -113
c-3 -5 -33 -10 -66 -10 -32 0 -59 -4 -59 -8 0 -11 122 -2 135 9 5 5 24 9 42 9
33 0 33 -1 33 -46 l0 -47 -65 6 c-39 4 -65 2 -65 -3 0 -6 19 -10 42 -10 23 0
39 -2 37 -5 -7 -6 -247 -14 -270 -8 -26 7 -24 22 4 33 22 9 22 9 -3 10 l-25 1
25 11 c25 11 25 11 3 15 -22 4 -31 31 -17 46 11 10 256 8 249 -3z m525 -104
c0 -12 17 -14 88 -11 48 2 182 6 297 9 116 4 295 9 399 12 l189 6 -6 -57 c-3
-31 -9 -60 -12 -63 -3 -4 -67 -8 -142 -10 -104 -3 -137 -1 -143 9 -7 10 -11
10 -24 0 -12 -10 -16 -10 -16 -1 0 8 -12 10 -40 6 -23 -3 -259 -8 -525 -12
l-485 -6 0 46 0 46 63 2 c41 1 50 3 25 5 -68 7 -40 18 46 18 90 0 128 -11 49
-14 -74 -2 -64 -11 13 -11 79 0 116 8 108 22 -4 6 14 9 49 6 30 -1 53 0 50 5
-2 4 1 7 6 7 6 0 11 -6 11 -14z m-437 -68 c3 -24 4 -45 1 -47 -9 -10 -109 -10
-115 0 -4 7 -39 7 -110 1 -57 -6 -105 -9 -106 -8 -1 1 -3 19 -5 41 l-3 40 65
5 c36 3 111 6 166 8 l101 2 6 -42z m3515 -17 c3 -10 0 -12 -12 -8 -9 4 -16 2
-16 -3 0 -6 -14 -10 -31 -10 -20 0 -28 -4 -23 -12 5 -7 3 -8 -5 -4 -18 11 -83
-3 -75 -16 4 -7 -4 -8 -25 -3 -20 4 -31 3 -31 -5 0 -6 -5 -8 -12 -4 -6 4 -8 3
-5 -3 4 -6 -10 -18 -33 -27 -46 -18 -80 -21 -80 -6 0 7 -6 7 -19 0 -13 -7 -20
-7 -23 1 -2 7 -12 7 -30 0 -14 -5 -68 -8 -119 -7 -131 5 -127 4 -109 16 8 5
22 10 30 10 13 0 13 -1 0 -10 -27 -17 5 -11 48 10 52 25 78 25 32 0 -19 -11
-28 -19 -20 -19 8 0 26 6 40 13 16 9 31 11 41 5 12 -6 34 -1 73 17 56 26 60
39 16 57 -12 4 -12 6 2 6 9 1 20 -4 23 -9 4 -6 11 -7 17 -4 7 4 8 2 4 -4 -5
-9 10 -13 51 -14 l58 -2 -55 -3 c-34 -3 -58 -10 -63 -19 -4 -8 -15 -14 -22
-14 -8 0 -15 -4 -15 -8 0 -14 65 -8 101 10 19 9 61 24 94 34 89 25 91 26 80
30 -6 2 -40 0 -75 -5 -36 -5 -67 -7 -69 -5 -13 12 22 20 112 24 139 7 140 7
145 -9z m-3173 -51 c17 -12 46 -20 41 -11 -3 5 0 11 8 14 22 9 715 3 709 -5
-2 -5 1 -8 6 -8 6 0 11 5 11 10 0 11 33 14 43 3 6 -5 76 -9 209 -12 26 -1 27
-3 26 -51 l0 -50 -111 1 c-82 1 -101 4 -72 9 26 5 2 7 -65 5 -58 -2 -122 -6
-144 -10 -24 -5 -36 -4 -33 2 9 15 -240 2 -265 -13 -3 -2 -18 0 -33 6 -15 6
-24 6 -20 1 3 -6 -14 -12 -37 -14 -24 -3 47 -3 158 0 176 4 201 3 201 -11 0
-11 -10 -15 -39 -13 -21 1 -38 5 -38 10 0 4 -7 7 -15 7 -8 0 -15 -4 -15 -9 0
-5 -96 -8 -212 -8 -117 0 -185 2 -150 4 34 2 62 8 62 13 0 4 -14 6 -32 3 -17
-2 -41 1 -54 8 -19 10 -26 9 -40 -6 -15 -15 -30 -16 -98 -12 -49 3 -69 2 -51
-3 19 -5 -25 -8 -120 -8 -92 0 -142 3 -130 8 17 7 17 9 3 9 -10 1 -18 8 -18
17 0 8 -5 12 -10 9 -6 -4 -7 -11 -4 -17 5 -8 -8 -9 -40 -6 -35 4 -46 2 -46 -8
0 -8 -10 -14 -22 -13 -22 0 -22 1 -3 9 16 7 13 9 -17 9 -21 1 -38 -3 -38 -8 0
-12 -78 -12 -86 0 -3 5 -29 9 -57 10 -41 1 -47 3 -27 9 22 7 22 8 5 10 -12 2
-6 5 15 10 l35 7 -30 2 c-23 1 -31 6 -32 21 -2 19 5 20 168 19 168 0 169 0
169 -22 0 -12 4 -17 8 -12 11 16 137 11 127 -5 -4 -6 5 -10 19 -10 14 0 26 5
26 11 0 6 -7 9 -15 5 -9 -3 -15 0 -15 9 0 11 -8 13 -30 9 -18 -4 -30 -2 -30 4
0 6 15 13 33 15 21 2 13 4 -23 6 -40 1 -51 4 -40 11 11 7 7 10 -17 10 -18 0
-33 5 -33 11 0 5 4 8 9 4 5 -3 13 0 16 5 8 13 283 12 300 0z m3811 -72 c38 -1
61 -3 52 -6 -24 -5 -23 -19 2 -27 21 -7 28 -25 10 -25 -5 0 -10 4 -10 10 0 5
-28 8 -64 7 -35 -1 -62 -5 -60 -8 4 -7 77 -21 112 -21 12 0 22 -4 22 -9 0 -4
-55 -8 -122 -8 -68 0 -172 -3 -233 -6 -60 -4 -105 -3 -98 2 6 4 -113 8 -265 8
-153 0 -293 3 -312 7 -19 5 -30 5 -23 0 6 -4 -108 -8 -253 -8 -145 -1 -262 2
-259 6 3 4 -13 10 -35 12 -42 4 -42 -7 0 -15 14 -2 -60 -3 -165 0 -104 2 -212
8 -240 12 -39 7 -21 9 82 7 101 -1 130 1 122 10 -6 7 -34 12 -65 12 -30 -1
-57 2 -61 5 -3 4 31 7 76 7 70 0 82 -2 77 -15 -3 -9 0 -15 10 -15 8 0 12 5 9
10 -4 6 10 10 37 9 44 -2 128 8 137 16 2 3 -93 4 -213 4 -119 -1 -218 -5 -221
-9 -5 -8 -48 -5 -124 6 -18 3 -31 7 -29 9 2 3 204 7 449 10 403 6 442 5 425
-9 -11 -9 -18 -16 -15 -17 2 0 60 -3 128 -5 86 -4 121 -2 116 5 -3 6 -18 11
-32 11 -15 0 -24 3 -20 6 10 10 356 14 524 6 83 -4 149 -4 146 1 -2 4 1 7 6 7
6 0 11 -4 11 -10 0 -5 15 -9 33 -9 l32 1 -30 8 c-17 4 24 7 100 7 71 0 122 -3
112 -6 -16 -6 -16 -8 -2 -26 8 -11 14 -15 13 -10 -3 15 22 56 31 50 5 -2 40
-6 77 -7z m-2788 -104 c23 -4 32 -12 32 -25 0 -11 -7 -19 -17 -20 -17 -1 -17
-2 0 -6 9 -2 17 -11 17 -19 0 -11 -29 -14 -157 -16 l-158 -2 160 -6 160 -6
-175 -2 c-98 -1 -169 2 -162 7 26 16 -24 19 -270 18 l-243 -1 230 -6 230 -6
-200 -3 c-110 -2 -213 -2 -230 -2 -16 1 -137 5 -267 8 -131 3 -236 8 -233 12
2 4 -10 5 -27 3 -42 -6 -33 17 13 35 l34 13 -37 -3 c-45 -4 -54 19 -10 26 44
6 1274 7 1310 1z m-1583 -16 c44 0 115 3 158 7 55 5 77 4 77 -4 0 -6 -4 -11
-10 -11 -5 0 -7 -7 -4 -15 5 -11 -1 -15 -22 -16 l-29 -2 29 -4 c28 -4 28 -5 7
-19 -15 -11 -26 -12 -40 -4 -25 13 -34 13 -26 0 4 -6 -5 -10 -19 -10 -14 0
-26 4 -26 9 0 5 -8 8 -17 6 -10 -2 -40 -4 -66 -4 -29 -1 -46 -5 -42 -11 4 -6
-6 -10 -22 -10 -22 0 -25 -2 -13 -10 11 -7 4 -10 -27 -10 l-43 0 0 53 c0 61 4
69 34 62 12 -3 57 -6 101 -7z m2642 -81 c-1 -5 16 -11 38 -13 28 -3 36 -1 25
6 -9 6 -10 10 -3 10 6 0 15 -5 18 -11 5 -6 31 -7 78 -3 40 4 124 7 187 6 63
-2 197 -4 298 -6 100 -2 185 -6 188 -9 4 -3 15 -1 25 6 14 9 21 9 31 -1 9 -9
9 -12 0 -13 -37 -3 -128 -7 -302 -13 -107 -4 -202 -10 -210 -12 -8 -3 -114 -5
-235 -5 -237 1 -381 15 -389 37 -6 16 39 20 49 4 3 -5 25 -10 48 -10 31 0 38
3 27 10 -11 7 -2 10 32 10 26 0 49 4 52 8 6 11 45 10 43 -1z m1200 -21 c-15
-12 -16 -14 -2 -20 8 -3 15 -1 15 4 0 6 9 10 20 10 11 0 20 -3 20 -7 0 -5 30
-8 68 -9 115 -1 297 -13 315 -20 10 -3 24 -1 32 6 9 7 41 10 90 8 41 -2 76 1
78 6 2 6 9 6 18 0 8 -4 40 -7 72 -5 32 1 63 -2 70 -7 7 -6 26 -12 42 -14 17
-2 -228 -5 -543 -6 -399 -1 -571 2 -566 10 4 7 -1 8 -17 2 -13 -4 -78 -10
-144 -14 -158 -9 -152 -9 574 -15 343 -3 627 -7 631 -10 4 -2 37 1 74 6 49 8
71 8 79 0 6 -6 7 -14 2 -18 -4 -5 -10 -2 -12 5 -3 6 -14 12 -26 11 -21 0 -21
-1 -2 -9 17 -8 -534 -8 -1415 -1 -107 1 -211 2 -230 1 -19 0 -53 3 -75 7 l-40
7 30 7 c17 3 64 8 105 10 l75 2 -65 6 c-52 5 199 15 662 26 9 0 20 4 25 8 4 5
-16 7 -45 4 -29 -3 -63 -2 -75 2 -12 3 20 8 73 12 52 3 97 6 100 7 3 1 -3 -5
-13 -12z m-542 -117 c-26 -4 -16 -5 30 -3 48 3 65 1 55 -6 -8 -5 -10 -10 -5
-11 6 -1 -15 -5 -45 -9 -41 -5 -20 -7 81 -8 74 -1 139 2 145 7 5 6 41 12 79
15 47 4 60 3 40 -3 -16 -5 -49 -9 -73 -10 -26 -1 -41 -5 -37 -11 4 -7 -148 -9
-452 -8 l-458 3 310 5 c261 5 284 6 145 9 -91 2 -150 6 -132 8 17 2 32 8 32
12 0 5 -19 4 -42 -1 -83 -18 -104 -20 -138 -9 -33 10 -32 10 15 6 39 -4 44 -2
25 5 -21 8 -18 9 15 5 22 -3 56 -1 75 3 19 5 112 8 205 8 94 0 152 -3 130 -7z
m1557 -21 c-7 -7 -47 -14 -90 -15 -42 -2 -86 -5 -97 -8 -11 -2 -53 -4 -92 -4
-60 -1 -73 -4 -73 -17 0 -12 -8 -15 -37 -10 -21 3 -40 6 -43 6 -3 0 4 7 14 15
18 14 16 15 -31 15 -28 0 -53 -5 -55 -11 -2 -7 -71 -10 -208 -9 -189 2 -230 3
-285 10 -36 4 46 20 125 24 41 3 60 2 43 0 -18 -3 -33 -9 -33 -13 0 -4 26 -4
58 1 99 14 180 19 152 9 -25 -9 163 -6 244 5 36 4 38 3 25 -13 -13 -17 -13
-17 4 -3 22 16 187 24 187 8 0 -5 5 -6 11 -2 6 3 48 9 93 11 44 3 83 7 85 9 2
2 7 4 10 4 3 0 0 -5 -7 -12z m-3510 -32 c16 -7 16 -9 2 -23 -9 -9 -13 -24 -11
-34 6 -21 -8 -23 -94 -19 -37 1 -46 -2 -46 -15 0 -13 7 -16 30 -11 16 3 56 6
88 6 l59 0 -15 24 c-15 23 -15 25 5 36 11 6 28 9 38 6 9 -3 24 -1 32 5 13 9
13 10 0 6 -14 -4 -70 18 -70 27 0 6 29 1 36 -7 4 -4 17 -7 29 -7 31 0 53 -27
28 -33 -10 -3 -1 -5 19 -6 37 -1 59 -16 36 -23 -7 -3 -5 -7 6 -11 11 -5 15 -3
10 5 -5 8 -2 9 12 4 10 -5 28 -10 39 -13 16 -4 17 -3 5 6 -13 9 -11 11 7 11
33 0 37 -18 6 -23 -16 -3 -35 -5 -43 -5 -8 0 -42 -3 -74 -8 -40 -5 -57 -4 -53
3 4 6 -4 13 -17 15 -17 3 -23 0 -22 -11 1 -17 53 -61 70 -61 6 0 0 9 -14 20
l-25 20 75 1 c41 1 89 3 107 5 27 3 31 1 26 -13 -5 -13 -1 -15 20 -11 16 3 37
-2 54 -13 l28 -19 -44 0 c-36 0 -41 -2 -32 -14 8 -9 30 -13 69 -11 42 2 49 1
27 -5 -57 -15 -100 -11 -123 11 -31 28 -77 31 -77 4 0 -13 -9 -22 -25 -26 -21
-6 -19 -7 12 -8 20 0 40 -5 43 -11 3 -5 11 -10 16 -10 6 0 7 5 4 10 -9 15 39
12 70 -4 26 -14 20 -15 -84 -15 -62 0 -116 -3 -121 -6 -5 -3 -11 -1 -14 4 -3
5 -24 4 -50 -2 -24 -5 -56 -6 -72 -2 l-29 8 30 8 c16 5 47 6 67 4 22 -3 38 -1
38 5 0 6 14 10 32 10 58 0 23 9 -42 11 -49 2 -71 7 -87 22 -31 28 -29 37 10
37 l32 0 -29 15 c-18 9 -56 15 -103 15 -70 0 -75 1 -70 20 3 11 1 18 -3 15 -5
-3 -12 0 -15 5 -4 6 -19 11 -33 10 -74 -5 -182 1 -182 10 0 6 55 10 143 11
121 1 284 14 221 18 -28 1 -35 11 -21 26 12 13 31 13 59 1z m1038 -35 c0 -5
-7 -12 -17 -15 -14 -6 -14 -8 3 -21 10 -8 15 -15 9 -15 -5 0 -3 -5 5 -11 12
-8 11 -9 -5 -5 -11 3 -27 1 -35 -4 -13 -8 -12 -10 3 -10 9 0 17 -5 17 -11 0
-5 -6 -7 -12 -3 -7 4 -10 4 -6 -1 4 -4 -3 -16 -15 -27 -21 -19 -20 -19 16 1
45 25 47 25 47 6 0 -8 -9 -19 -20 -25 -22 -12 -17 -35 6 -26 8 3 14 1 14 -4 0
-6 -6 -10 -14 -10 -19 0 -30 -32 -14 -41 18 -11 -138 -82 -157 -72 -28 16 35
63 84 63 35 0 49 15 21 23 -11 3 -18 1 -15 -4 4 -5 -14 -6 -39 -3 -29 3 -46 1
-46 -6 0 -5 8 -10 18 -11 14 0 14 -2 -3 -9 -48 -20 -64 5 -22 35 22 16 22 16
-7 9 -22 -5 -28 -4 -24 7 3 9 17 13 39 12 29 -2 31 -1 9 6 -24 7 -24 7 -5 19
25 14 11 16 -16 2 -15 -8 -19 -7 -19 4 0 9 10 21 22 27 22 12 22 12 3 19 -18
6 -17 8 10 24 25 14 20 15 -15 3 -3 -1 -6 3 -7 8 -2 6 14 10 35 11 40 1 132
39 132 54 0 6 5 10 10 10 6 0 10 -4 10 -9z m1325 -60 c187 -4 303 -8 257 -9
-52 -1 -81 -6 -77 -12 4 -6 -6 -10 -22 -11 -15 0 -73 -1 -128 -3 -104 -2 -154
4 -101 14 17 3 -194 4 -469 3 -296 -1 -494 2 -489 7 18 18 443 22 1029 11z
m1422 -116 c51 3 103 1 115 -4 35 -13 -200 -25 -479 -24 -133 0 -245 3 -250 6
-12 7 -107 12 -119 5 -5 -2 -27 -6 -50 -7 -31 -1 -41 2 -41 14 0 14 35 16 305
15 167 -1 306 0 308 3 2 2 30 0 61 -4 32 -5 99 -7 150 -4z m-4255 -29 c13 -19
9 -26 -18 -26 l-26 0 23 -19 c25 -20 51 -18 43 4 -4 9 0 12 13 9 11 -3 18 -14
18 -28 0 -22 -4 -23 -70 -23 -38 1 -87 -2 -107 -5 -38 -5 -54 7 -20 15 9 2 6
2 -8 0 -14 -2 -49 -6 -79 -9 -47 -5 -53 -3 -47 11 5 14 0 15 -42 9 l-47 -7 19
22 c11 11 27 21 37 21 10 0 21 5 24 10 4 7 11 8 18 1 13 -10 55 -14 107 -10
27 2 21 4 -25 9 l-60 7 70 -1 c50 -1 69 -5 68 -13 -2 -8 8 -13 28 -13 16 0 28
4 25 9 -17 27 38 53 56 27z m2128 -18 c8 0 26 1 40 2 70 5 330 -1 330 -8 0 -4
44 -6 98 -4 69 2 93 0 82 -7 -12 -9 -11 -11 8 -11 12 0 22 4 22 9 0 9 121 6
320 -7 l125 -9 -235 -4 c-270 -4 -317 -4 -610 10 -118 6 -264 11 -325 12 -109
0 -110 1 -65 14 30 9 70 12 120 9 41 -3 82 -6 90 -6z m-1200 -4 c88 -6 97 -9
107 -30 14 -29 -1 -32 -30 -6 -19 16 -20 16 -14 0 5 -14 -2 -18 -41 -21 -42
-3 -41 -4 15 -5 55 -2 85 -14 70 -28 -11 -11 -188 -6 -202 6 -21 18 -19 30 8
31 16 1 13 3 -11 9 -18 4 -41 6 -50 3 -10 -2 -28 7 -41 21 l-24 26 59 0 c32 0
102 -3 154 -6z m1820 -74 c-20 -6 -21 -8 -5 -8 11 -1 41 3 68 7 26 4 47 4 47
-1 0 -4 7 -8 16 -8 8 0 13 3 11 8 -6 8 131 7 303 -3 63 -4 153 -6 199 -5 59 1
81 -1 76 -10 -5 -8 2 -9 22 -3 15 4 46 8 68 7 89 -1 703 -15 900 -20 252 -6
278 -8 283 -24 3 -9 -50 -10 -244 -5 -137 4 -251 9 -255 11 -3 1 -22 -1 -42
-6 -21 -4 -47 -5 -60 -2 -16 5 -10 9 28 13 33 4 28 5 -15 2 -125 -10 -781 -3
-775 7 2 3 -69 5 -158 3 -89 -1 -157 1 -150 5 6 4 -64 6 -155 5 -92 0 -221 1
-287 5 l-120 6 55 11 c66 13 228 18 190 5z m-1706 -115 c9 -13 16 -27 16 -30
0 -3 -26 -6 -57 -6 -48 -2 -42 -3 36 -10 52 -5 99 -14 105 -20 8 -9 7 -10 -6
-6 -9 3 -19 3 -23 -1 -8 -9 -29 -12 -125 -18 -53 -3 -71 -2 -60 5 9 6 10 11 3
11 -6 0 -9 9 -6 23 4 19 3 20 -7 5 -16 -25 -24 -22 -37 12 -9 25 -9 30 3 30 8
0 14 4 14 9 0 9 19 12 106 19 13 1 28 -8 38 -23z m1386 -95 c-6 -11 -22 -23
-35 -26 -14 -3 -25 -13 -25 -21 0 -12 2 -12 16 1 8 9 22 16 30 16 23 0 28 3
47 27 16 19 28 23 75 23 l57 0 -25 -20 c-14 -11 -20 -20 -13 -20 6 0 9 -9 6
-20 -8 -31 -23 -24 -23 12 0 17 -3 28 -7 25 -3 -4 -6 -20 -5 -37 0 -20 -3 -28
-11 -24 -7 3 -3 -2 7 -10 11 -9 16 -19 11 -23 -4 -5 -10 -3 -12 4 -3 7 -20 10
-50 6 -32 -3 -48 -1 -54 9 -7 10 -9 10 -9 1 0 -16 -32 -17 -48 -1 -9 9 -12 9
-12 0 0 -7 -4 -12 -10 -12 -5 0 -10 12 -10 28 0 28 33 59 58 54 6 -2 12 4 12
13 0 8 9 15 20 15 18 0 19 -3 10 -20z m376 -89 c-4 -5 4 -7 16 -3 14 3 19 1
14 -6 -4 -7 4 -9 28 -5 26 4 38 1 52 -15 9 -11 24 -18 32 -14 10 4 13 1 8 -7
-5 -7 -14 -10 -22 -7 -8 3 -14 1 -14 -4 0 -5 -8 -11 -17 -13 -10 -3 -5 -5 12
-6 21 -1 26 -4 16 -10 -10 -7 -5 -11 18 -16 17 -4 29 -10 26 -15 -3 -4 22 -11
56 -15 53 -6 58 -9 42 -21 -17 -13 -17 -13 5 -14 12 0 22 4 22 10 0 5 7 7 15
4 12 -5 10 -10 -8 -25 l-22 -18 21 -1 c12 0 24 -7 28 -15 3 -8 16 -15 30 -15
36 0 41 -17 9 -28 -23 -8 -17 -9 32 -6 48 2 53 1 25 -5 -22 -5 -27 -9 -15 -10
l20 -2 -20 -9 c-18 -8 -18 -9 -2 -9 13 -1 17 -6 13 -19 -5 -16 -1 -18 26 -15
18 1 27 0 21 -3 -7 -3 -13 -12 -13 -19 0 -7 -8 -16 -17 -18 -12 -3 -10 -5 7
-6 51 -3 55 -19 7 -26 -50 -8 -85 3 -51 16 16 7 15 8 -7 8 -26 1 -57 25 -42
33 4 3 3 4 -3 2 -6 -1 -17 3 -23 9 -8 8 -5 15 11 24 22 13 21 13 -9 8 -34 -7
-55 11 -32 26 10 6 6 9 -13 9 -18 0 -28 5 -28 15 0 8 -9 15 -20 15 -11 0 -23
7 -26 15 -4 8 -15 15 -25 15 -21 0 -24 11 -9 26 6 6 2 10 -13 9 -39 0 -33 20
8 26 28 5 23 6 -18 3 -37 -2 -56 0 -52 6 3 6 -4 11 -17 11 l-23 2 23 4 c37 7
25 23 -19 23 -36 0 -40 2 -34 20 5 17 2 20 -22 20 -19 0 -24 3 -15 9 11 6 10
10 -3 15 -10 3 -15 12 -12 20 3 8 1 17 -6 20 -7 2 -2 5 11 5 13 1 21 -3 18 -8z
m2194 -78 c0 -4 -35 -9 -78 -9 -149 -2 -172 -4 -172 -12 0 -10 255 -7 272 4 6
4 35 7 62 7 48 -1 49 -1 16 7 l-35 8 35 -1 c42 -2 45 -19 4 -29 -17 -4 -9 -5
21 -2 91 9 473 13 425 4 -25 -5 -108 -9 -185 -10 -77 0 -223 -5 -324 -10 -212
-11 -762 -25 -931 -25 -347 2 -972 10 -951 13 19 3 21 6 10 13 -8 5 63 8 179
6 105 -1 192 1 192 5 0 10 23 6 31 -5 3 -4 26 -3 50 2 61 14 102 14 93 -1 -4
-7 -3 -8 4 -4 20 12 112 24 118 14 3 -5 29 -6 57 -3 37 4 46 3 32 -4 -28 -13
-1 -13 55 0 25 6 75 11 112 10 37 0 80 4 97 9 20 6 31 5 34 -3 2 -8 17 -8 56
1 29 7 65 12 79 11 l27 -1 -25 -9 c-18 -6 -11 -7 25 -3 28 3 75 7 105 9 46 4
49 3 17 -4 -58 -12 -57 -22 3 -17 30 3 57 5 60 6 3 1 25 2 50 2 25 0 50 4 55
8 11 9 58 13 223 18 56 2 102 0 102 -5z m-170 -104 c3 -1 -17 -5 -45 -9 -45
-6 -42 -7 30 -7 53 -1 72 2 55 7 -21 7 -22 8 -5 9 11 1 43 3 70 5 37 3 41 2
15 -3 -19 -3 121 -5 313 -2 229 2 347 0 347 -6 0 -6 58 -13 141 -18 77 -4 138
-10 135 -13 -4 -3 -72 -7 -154 -9 -81 -2 -158 -5 -172 -6 -14 -1 -28 1 -31 5
-3 5 -39 4 -79 -2 -55 -8 -75 -7 -81 1 -4 7 -14 9 -25 4 -26 -11 -204 -12
-204 -1 0 5 -26 6 -57 2 -128 -14 -157 -16 -147 -7 5 5 18 12 29 15 16 4 -31
2 -105 -5 -8 -1 -1 -5 15 -9 30 -8 30 -8 -8 -9 -23 -1 -36 3 -32 9 8 12 -60
12 -260 0 -169 -10 -834 -25 -1085 -25 -177 1 -226 5 -279 28 -29 13 -31 15
-12 20 11 3 24 1 27 -4 3 -5 89 -8 192 -7 103 0 167 4 142 7 -25 3 227 6 560
5 333 -1 574 2 535 6 -38 3 -63 8 -55 9 8 2 2 7 -15 11 -17 5 27 7 105 5 74
-2 137 -4 140 -6z m-470 -77 c0 -5 -30 -14 -67 -22 -47 -9 -62 -15 -49 -20 11
-3 -99 -6 -245 -6 -145 0 -282 -3 -304 -7 -22 -4 -3 3 42 16 45 12 85 25 89
30 10 10 34 9 34 -2 0 -5 -17 -12 -37 -17 -21 -4 -31 -9 -22 -11 9 -2 54 5 99
17 45 12 85 19 87 16 3 -3 -11 -8 -31 -12 -21 -3 -35 -8 -33 -11 3 -2 38 3 78
11 45 9 114 14 175 12 55 -1 109 1 120 5 26 10 64 11 64 1z m-1915 -62 c-19
-8 -19 -9 3 -9 24 -1 28 -11 11 -28 -7 -7 -6 -12 6 -17 9 -3 13 -2 10 4 -3 6
0 10 8 10 10 0 13 -7 10 -20 -3 -12 0 -20 6 -20 7 0 10 -4 7 -9 -8 -12 -85
-19 -118 -10 -14 4 -29 4 -33 1 -4 -4 -11 -8 -16 -8 -5 -1 -15 -2 -21 -3 -25
-3 55 -31 88 -31 33 0 49 -19 19 -21 -28 -3 -33 -4 -41 -11 -4 -5 8 -9 27 -9
28 -1 26 -3 -16 -9 -75 -12 -123 -12 -105 0 8 5 11 10 6 10 -6 0 -1 7 10 15
18 15 18 15 -6 10 -30 -6 -36 -2 -73 47 l-27 37 30 -10 c16 -6 35 -9 41 -7 7
2 -17 11 -52 20 -35 9 -53 17 -40 17 17 1 22 5 17 17 -6 15 1 16 55 11 35 -3
66 -11 70 -19 8 -11 11 -11 18 1 6 9 20 12 37 9 16 -3 43 -2 59 2 l30 8 -33 1
c-28 1 -31 3 -20 16 7 8 22 14 33 14 l20 0 -20 -9z m3925 -49 c0 -35 7 -34
-495 -44 -110 -2 -177 -1 -150 2 34 5 45 9 34 15 -9 4 -47 2 -85 -5 -38 -6
-172 -13 -299 -15 -289 -5 -420 -10 -484 -19 -32 -4 -51 -3 -51 3 0 6 -14 7
-37 1 -48 -11 -103 -11 -103 -1 0 17 108 34 240 38 74 3 141 7 148 9 7 3 10 0
7 -5 -3 -6 -16 -10 -27 -10 -12 0 -19 -3 -16 -6 3 -3 43 2 88 10 98 19 124 20
114 5 -4 -7 0 -9 12 -6 56 17 205 26 419 26 132 0 308 4 390 9 262 16 295 15
295 -7z m-2020 -46 c-46 -18 -29 -18 46 0 69 16 366 19 306 3 -18 -5 -30 -12
-28 -17 3 -4 -21 -8 -53 -8 -32 -1 -73 -4 -91 -8 -23 -5 -30 -4 -26 4 4 6 17
11 28 11 12 0 19 3 15 6 -3 3 -37 -1 -76 -10 -82 -19 -195 -22 -171 -5 12 8
10 9 -10 5 -14 -4 -54 -9 -89 -13 -52 -5 -63 -4 -56 7 6 10 3 11 -16 5 -13 -4
-116 -9 -229 -10 -142 -1 -194 1 -170 7 19 5 51 11 70 14 27 3 31 2 15 -5 -32
-15 3 -13 65 4 30 8 64 14 75 14 l20 0 -20 -10 c-15 -7 -11 -8 15 -3 57 12
220 13 220 2 0 -5 6 -6 13 -1 13 8 93 20 147 21 l35 0 -35 -13z m-2454 -15
c63 0 72 -2 77 -20 4 -16 0 -20 -21 -21 -22 0 -24 -2 -8 -8 29 -11 119 -7 123
6 2 6 -13 21 -34 32 l-38 20 52 1 c42 0 54 -4 63 -19 14 -27 13 -31 -7 -31
-14 -1 39 -30 53 -30 2 0 -6 15 -17 34 l-20 34 33 -7 c33 -8 78 -28 78 -36 0
-2 -17 -1 -37 1 -29 4 -34 3 -23 -5 8 -6 32 -11 53 -11 20 0 37 -4 37 -10 0
-6 -35 -10 -84 -10 -51 0 -88 -4 -92 -11 -5 -8 63 -10 248 -8 l254 4 31 -25
c17 -14 33 -33 36 -42 5 -16 -3 -18 -63 -18 -38 0 -71 4 -74 9 -3 5 -24 7 -46
4 -26 -4 -40 -2 -40 6 0 8 -40 11 -129 11 -86 0 -132 4 -137 11 -5 8 -10 6
-16 -5 -5 -9 -19 -16 -31 -16 -18 0 -19 2 -7 10 13 8 12 10 -2 10 -10 0 -18
-4 -18 -10 0 -5 -17 -9 -37 -9 l-38 2 35 7 c30 6 26 8 -30 10 -36 1 -87 5
-115 9 -41 6 -46 9 -25 14 14 4 43 8 65 10 22 2 5 4 -38 5 -49 1 -76 -2 -72
-8 3 -6 -1 -7 -9 -4 -9 3 -16 16 -16 28 -1 18 -2 19 -13 6 -8 -10 -26 -14 -55
-12 -37 3 -42 6 -31 18 14 17 69 19 69 2 0 -8 6 -7 16 4 15 15 14 18 -5 37
-25 25 -18 45 13 37 11 -3 53 -6 92 -6z m1139 -81 c28 -12 22 -13 -84 -20 -62
-5 -116 -11 -119 -14 -3 -3 4 -5 16 -5 12 0 30 -4 40 -9 62 -31 80 -36 144
-34 47 2 67 -1 62 -8 -4 -8 9 -10 42 -7 36 3 57 -1 79 -15 l30 -19 -34 6 c-18
3 -72 7 -120 7 -68 2 -78 3 -46 9 l40 7 -36 2 c-20 0 -38 -2 -42 -5 -3 -4 -30
-7 -59 -8 -29 -1 -89 -5 -133 -9 -50 -4 -71 -3 -55 2 l25 9 -27 1 c-21 1 -26
5 -21 17 5 14 1 16 -30 10 -42 -8 -61 10 -20 20 45 9 51 14 13 10 -43 -4 -60
1 -60 20 0 7 6 11 14 8 8 -3 17 -1 21 5 3 6 0 12 -7 12 -30 4 251 27 292 24
25 -1 59 -8 75 -16z m247 -181 c-6 -6 -42 -15 -79 -19 -44 -4 -14 -6 87 -3
118 2 159 0 173 -10 16 -13 15 -15 -13 -24 -27 -10 -30 -9 -28 6 2 10 -5 18
-17 20 -17 3 -18 1 -5 -8 12 -9 10 -11 -13 -7 -15 2 -30 0 -33 -4 -3 -5 7 -9
21 -9 34 0 86 -36 79 -55 -5 -12 3 -12 52 0 32 7 63 11 69 7 9 -6 -15 -13 -85
-27 -14 -3 -47 -10 -73 -15 -62 -13 -67 -12 -38 4 l24 14 -21 6 c-12 4 -20 12
-17 17 4 5 -5 9 -19 9 -14 0 -28 -4 -31 -10 -11 -18 -49 -11 -80 15 -28 22
-28 24 -6 18 17 -4 22 -3 17 5 -5 8 2 12 21 13 15 1 -8 5 -52 9 -43 5 -81 13
-83 19 -2 6 -26 11 -52 11 -27 0 -52 4 -55 10 -4 6 44 11 127 13 73 1 135 4
138 5 2 1 -1 -3 -8 -10z"/>
<path d="M8395 5040 c-44 -22 -106 -49 -138 -61 -32 -12 -60 -25 -62 -30 -3
-4 -15 -5 -28 -2 -16 3 -18 2 -8 -5 21 -15 -4 -24 -35 -12 -15 6 -29 9 -31 7
-2 -3 25 -14 59 -27 35 -12 108 -40 163 -63 129 -52 215 -81 348 -118 60 -16
123 -37 140 -46 31 -16 262 -99 302 -109 11 -3 -11 9 -50 26 -49 21 -60 28
-35 24 19 -3 50 -12 68 -20 20 -8 41 -10 54 -5 19 7 17 8 -14 14 -31 5 -166
53 -178 64 -2 2 2 9 10 14 12 9 11 10 -4 5 -22 -7 -138 13 -132 23 3 4 -10 8
-27 9 -49 3 -168 55 -162 70 3 9 0 10 -14 2 -15 -7 -38 -3 -95 17 -75 26 -96
43 -56 43 25 0 84 29 76 37 -3 3 -11 1 -18 -4 -20 -16 -82 -28 -74 -14 8 13
-26 2 -35 -11 -3 -5 -18 -4 -32 3 -23 10 -25 15 -14 28 10 14 10 14 -4 4 -12
-10 -29 -8 -85 9 -67 20 -68 21 -41 33 15 6 24 15 20 20 -5 4 -3 5 3 2 14 -8
166 60 177 80 5 8 16 11 28 8 14 -5 17 -3 13 9 -3 9 -7 16 -8 15 0 0 -37 -18
-81 -39z"/>
<path d="M9175 4690 c-22 -10 -34 -19 -27 -19 7 -1 23 4 34 10 14 8 23 8 31 0
15 -15 40 -14 31 2 -5 7 -1 6 10 -3 17 -13 16 -16 -20 -32 -29 -14 -32 -17
-12 -13 16 3 28 0 31 -8 3 -9 8 -9 21 2 25 21 30 6 10 -28 -22 -37 -58 -46
-107 -26 -41 17 -60 20 -37 5 13 -9 13 -10 0 -10 -8 -1 18 -10 59 -21 41 -10
86 -26 99 -35 l25 -16 -5 -222 c-4 -205 5 -196 15 14 2 41 8 84 12 94 6 13 4
21 -3 24 -8 2 -7 12 4 34 9 17 11 27 5 24 -7 -5 -11 4 -11 23 l0 30 190 62
c104 35 188 65 185 67 -2 2 -20 -1 -39 -8 -20 -6 -41 -8 -48 -4 -7 4 -10 3 -5
-1 8 -10 -102 -47 -115 -39 -5 3 -42 -10 -83 -30 -79 -38 -107 -43 -152 -25
l-28 11 44 19 c25 11 51 17 58 15 7 -3 26 0 41 6 30 13 69 48 53 48 -6 0 -14
-8 -20 -17 -8 -15 -13 -15 -36 -5 -14 7 -24 8 -21 3 3 -5 -10 -9 -29 -9 -19 0
-35 2 -35 4 0 2 17 13 38 24 20 12 28 18 17 14 -11 -3 -29 -8 -40 -11 -17 -4
-18 -3 -5 7 12 9 10 10 -10 4 -14 -3 -22 -3 -18 1 9 10 -22 41 -47 48 -11 3
-38 -3 -60 -13z"/>
<path d="M6131 4437 c-1 -15 -6 -17 -30 -12 -34 7 -85 -15 -104 -45 -7 -13
-23 -20 -43 -20 -35 0 -64 -26 -64 -58 0 -11 -8 -23 -17 -25 -14 -4 -13 -5 3
-6 15 -1 24 -10 28 -27 4 -15 9 -24 12 -22 2 3 0 17 -5 32 -9 22 -8 26 7 26 9
0 30 -11 45 -25 30 -29 37 -79 12 -89 -8 -3 -15 -15 -15 -26 0 -25 -12 -26
-27 0 -8 12 -9 21 -3 25 6 3 10 11 10 17 0 6 -11 1 -25 -12 -19 -18 -25 -33
-24 -64 1 -23 3 -33 6 -24 4 16 6 16 31 1 25 -14 24 -14 -3 10 -24 21 -28 28
-17 38 10 11 15 9 30 -11 9 -13 20 -31 24 -40 4 -8 7 3 7 26 1 48 8 58 30 41
14 -11 14 -10 2 6 -12 15 -11 17 10 18 17 1 19 3 7 6 -11 3 -18 14 -18 28 0
13 -11 37 -25 54 l-26 30 41 11 c41 11 43 16 42 75 0 21 14 35 37 35 10 0 7
-8 -9 -25 -13 -14 -19 -25 -15 -25 5 0 19 12 31 27 l22 28 15 -35 c9 -21 16
-28 16 -17 1 14 6 16 27 11 26 -7 26 -7 8 15 -11 12 -22 31 -26 44 -5 17 -6
18 -7 4z"/>
<path d="M8118 3809 c15 -20 8 -24 -64 -34 -27 -4 -56 -12 -64 -17 -15 -9 23
-6 93 8 27 6 28 5 17 -16 -7 -13 -15 -18 -19 -13 -3 6 -14 7 -26 2 -16 -6 -17
-8 -3 -8 9 -1 20 -6 24 -13 4 -7 3 -8 -4 -4 -8 5 -12 -4 -13 -26 -1 -31 -1
-32 -9 -8 -8 24 -8 24 -9 3 -1 -12 -10 -27 -20 -33 -26 -13 -34 -13 -25 3 5 6
-9 -3 -29 -20 -37 -32 -67 -43 -67 -24 0 6 10 17 22 25 12 9 18 16 12 16 -6 0
-19 -9 -30 -21 -18 -20 -18 -21 1 -35 23 -17 30 -17 47 -1 7 6 20 13 28 13 8
1 24 5 34 10 18 7 19 4 13 -41 -4 -26 -7 -73 -7 -104 l0 -56 -102 -3 c-109 -4
-149 -19 -163 -63 -4 -11 -21 -27 -38 -35 -28 -13 -29 -14 -7 -12 15 2 32 15
45 35 20 33 82 60 111 49 7 -3 16 -1 19 4 9 15 125 13 125 -2 0 -8 3 -9 8 -3
8 12 29 15 102 17 35 0 43 2 23 5 -18 2 -33 8 -33 13 0 4 -15 7 -32 6 -33 -1
-33 -1 -30 42 1 24 10 54 18 67 9 14 14 30 11 37 -4 8 -6 7 -6 -4 -1 -25 -18
-31 -24 -8 -3 11 -1 18 4 14 5 -3 9 13 9 35 0 23 4 41 9 41 5 0 9 -6 8 -12 -1
-34 4 -48 18 -48 11 0 15 -13 17 -47 l1 -48 6 45 c3 25 11 44 16 43 10 -2 14
-15 36 -125 6 -32 16 -58 21 -58 6 0 7 8 3 18 -16 37 -15 58 5 82 l20 25 0
-52 c0 -29 3 -53 8 -53 4 0 7 38 7 84 0 88 -9 98 -35 35 -20 -46 -35 -29 -36
40 -1 34 -5 65 -8 68 -3 4 -6 -3 -6 -14 0 -11 -7 -26 -15 -33 -14 -12 -19 -7
-16 13 1 5 -3 6 -8 3 -14 -9 -25 34 -12 47 6 6 11 8 11 4 0 -4 10 3 22 15 l22
22 7 -24 c7 -25 7 -25 8 3 1 16 5 26 11 22 5 -3 19 0 30 7 18 11 23 10 37 -7
8 -11 13 -14 11 -6 -7 25 -36 37 -55 25 -19 -12 -43 -8 -43 7 0 5 8 9 18 10
14 0 13 2 -4 9 -24 9 -37 36 -27 53 3 7 3 9 -2 5 -4 -4 -15 -2 -24 5 -14 10
-14 10 -3 -4z"/>
<path d="M6384 3696 c-22 -24 -47 -88 -48 -119 -1 -26 -6 -34 -31 -42 -45 -15
-53 -22 -60 -54 -5 -24 -11 -29 -33 -28 -28 2 -53 17 -46 28 6 10 -71 41 -92
37 -19 -3 -34 -16 -34 -31 0 -5 4 -6 9 -2 5 3 12 1 16 -5 3 -5 21 -10 40 -10
19 0 36 -4 39 -9 4 -5 -2 -7 -13 -4 -23 6 -38 -14 -22 -30 19 -19 13 -45 -11
-50 -20 -4 -20 -4 4 -6 19 -1 27 -7 30 -23 5 -38 70 -36 109 3 20 20 45 17 32
-4 -5 -9 -3 -9 8 0 8 6 25 11 39 11 14 0 39 4 55 8 28 7 29 6 15 -12 -15 -18
-14 -18 12 -1 15 9 46 17 69 17 35 0 40 -3 35 -17 -6 -15 -5 -15 13 1 24 22
98 19 93 -4 -3 -11 1 -11 16 3 21 19 98 25 86 6 -5 -8 -1 -8 14 0 11 6 35 11
53 11 l32 0 -19 -22 c-19 -21 -19 -21 23 2 27 15 48 20 60 15 20 -8 68 -7 213
4 l95 7 -80 3 c-44 1 -129 3 -190 3 -104 0 -108 1 -65 12 27 7 55 9 69 4 13
-5 26 -7 28 -4 2 2 -12 9 -33 16 -26 9 -33 15 -23 21 11 7 10 9 -3 9 -10 0
-18 -4 -18 -10 0 -16 -41 -32 -66 -26 -13 4 -24 13 -24 21 0 18 -18 19 -58 2
-23 -10 -29 -16 -22 -27 8 -13 12 -11 25 8 22 30 45 29 45 -3 0 -23 -4 -25
-42 -25 -44 1 -78 20 -91 53 -8 21 -30 22 -50 2 -11 -11 -22 -12 -51 -4 -35
10 -36 11 -22 36 12 25 12 28 -8 44 -29 23 -92 48 -125 51 -24 2 -27 5 -22 27
l5 26 7 -25 c6 -23 7 -23 8 -3 1 17 8 23 34 26 31 4 31 4 -5 5 -33 2 -38 5
-38 25 0 24 22 49 50 60 11 4 9 6 -5 6 -11 0 -25 -5 -31 -13z m-20 -170 c-5
-13 -1 -13 25 -3 27 10 33 8 54 -11 13 -12 33 -22 45 -22 29 0 28 -8 -5 -43
-20 -21 -23 -28 -10 -24 13 5 17 1 17 -18 0 -24 -2 -25 -70 -25 -60 0 -70 3
-70 18 0 14 -2 15 -10 2 -8 -13 -10 -13 -14 0 -3 8 -7 31 -8 50 -2 25 -9 38
-25 45 -34 14 -28 22 25 33 26 5 48 10 49 11 1 0 0 -6 -3 -13z"/>
<path d="M7545 3281 c-34 -18 -66 -26 -100 -26 -31 0 -56 -6 -66 -15 -20 -20
-102 -79 -148 -107 -20 -13 -49 -22 -67 -21 -17 1 -50 -8 -75 -21 -93 -48
-115 -58 -143 -65 -26 -6 -27 -6 -12 9 25 25 19 26 -19 4 -25 -15 -34 -17 -30
-7 4 11 -1 14 -17 13 -13 -1 -22 -7 -21 -12 1 -6 -45 -11 -110 -12 -62 -2
-124 -4 -138 -6 -14 -2 -32 1 -40 6 -9 5 24 9 85 9 55 0 97 2 94 6 -3 3 -56 5
-117 6 -93 0 -109 3 -100 14 7 9 7 14 1 14 -5 0 -15 -7 -22 -15 -7 -8 -22 -15
-34 -15 -17 1 -13 9 29 47 52 49 38 42 -29 -14 -29 -24 -49 -33 -75 -33 l-36
1 35 31 c19 16 26 26 15 20 -11 -6 -29 -20 -39 -31 -19 -21 -27 -21 -264 -20
l-244 0 28 31 29 31 -40 -30 c-39 -30 -45 -31 -169 -36 l-128 -6 18 21 c19 21
19 21 -3 7 -13 -8 -23 -17 -23 -21 0 -5 -21 -8 -46 -8 -43 0 -45 1 -33 18 11
14 11 15 -1 5 -8 -7 -32 -13 -54 -13 l-40 0 49 53 50 52 -50 -47 c-35 -33 -62
-49 -90 -54 l-40 -6 35 38 35 39 -40 -36 c-22 -20 -47 -39 -55 -42 -8 -3 -2
-6 14 -6 16 -1 27 -4 23 -7 -3 -3 -24 -3 -47 1 -41 7 -41 7 -23 28 17 19 16
19 -12 -2 -42 -30 -89 -33 -93 -5 -2 11 4 27 13 34 8 7 15 17 15 22 0 6 -7 5
-15 -2 -22 -18 -20 18 2 42 16 18 16 18 0 12 -20 -7 -23 16 -5 34 9 9 9 12 -1
12 -9 0 -12 9 -9 28 3 15 2 38 -2 52 -7 23 -8 22 -10 -10 -4 -85 -3 -270 1
-275 7 -6 710 -5 1093 2 230 4 307 3 302 -6 -4 -6 -2 -11 3 -11 6 0 11 4 11 9
0 6 42 10 95 10 l94 -1 -27 -25 c-25 -23 -25 -23 -2 -9 30 19 64 22 54 4 -6
-10 -4 -10 7 0 25 23 33 12 9 -13 -13 -14 -20 -25 -16 -25 4 0 18 12 31 27 23
27 26 28 135 29 61 1 114 5 117 8 4 3 -8 6 -25 6 -20 0 -32 5 -32 13 0 18 141
87 177 87 16 0 45 9 66 20 20 11 43 20 51 20 8 0 24 9 37 21 l24 20 -27 -17
c-17 -10 -28 -12 -28 -5 0 6 3 11 8 11 4 0 30 17 58 38 36 28 56 37 70 32 11
-5 47 2 89 17 39 14 93 28 120 32 38 6 42 9 18 10 -17 0 -37 3 -45 5 -7 2 -35
-8 -63 -23z"/>
<path d="M1077 2043 c-8 -18 -19 -23 -51 -24 -23 -1 -32 -4 -21 -6 11 -3 25
-9 32 -15 8 -6 19 -5 33 2 12 6 24 9 28 6 3 -3 0 -6 -5 -6 -6 0 -10 -8 -8 -17
1 -10 -7 -35 -19 -55 -28 -49 -14 -62 39 -37 29 14 33 18 13 14 -14 -3 -34 -8
-43 -11 -16 -6 -16 -5 0 27 25 49 55 79 79 78 19 -1 18 -2 -4 -10 -21 -7 -18
-8 16 -6 36 2 40 0 31 -14 -5 -9 -7 -28 -3 -44 5 -20 12 -26 26 -22 11 3 26
-3 36 -14 17 -18 15 -19 -36 -19 -75 0 -59 -6 30 -13 41 -2 67 -3 58 0 -25 6
-22 41 5 64 22 19 22 19 -45 13 -56 -5 -68 -3 -68 9 0 27 24 35 124 41 55 3
102 8 104 11 3 3 -6 5 -21 5 -14 0 -29 5 -32 10 -3 6 -53 10 -113 10 -116 0
-150 10 -119 34 16 13 15 14 -19 13 -28 -1 -39 -6 -47 -24z"/>
<path d="M694 2040 c-23 -10 -45 -23 -49 -29 -10 -18 -26 -1 -20 20 8 23 -3
24 -33 3 -18 -12 -26 -13 -37 -4 -17 14 -57 10 -62 -6 -2 -6 6 -14 18 -17 13
-3 18 -10 14 -17 -6 -9 -2 -9 14 -1 42 23 15 -22 -31 -52 -18 -11 -28 -26 -28
-41 0 -26 -16 -36 -71 -41 -20 -2 -40 -5 -45 -6 -22 -4 -35 2 -28 13 4 7 3 8
-5 4 -9 -6 -9 -11 -1 -21 8 -10 30 -12 86 -8 52 4 74 3 74 -6 0 -6 6 -11 14
-11 18 0 26 -22 19 -49 -10 -40 22 -22 48 26 20 39 31 49 62 56 20 5 37 14 37
19 0 6 -7 7 -16 4 -9 -3 -26 -6 -40 -6 -19 0 -28 -10 -46 -51 -20 -48 -22 -50
-30 -28 -5 13 -16 30 -25 37 -15 10 -13 12 13 13 16 0 22 3 14 6 -46 15 -46
15 -25 23 19 8 19 9 -2 9 -26 1 -30 23 -9 40 17 15 86 23 86 11 0 -5 -12 -18
-26 -29 -27 -21 -22 -29 6 -11 8 5 19 5 25 0 7 -5 31 -3 60 5 l50 15 -50 -6
-50 -5 33 33 c27 28 34 31 43 18 8 -12 9 -11 7 5 -1 11 1 26 5 33 18 28 -8 8
-50 -38 -25 -28 -47 -49 -49 -47 -3 2 8 25 22 51 28 50 52 71 97 81 15 4 30
11 33 16 8 13 -5 10 -52 -11z"/>
<path d="M2061 1583 c0 -6 -8 -19 -17 -27 -8 -9 -11 -16 -6 -16 6 0 15 -13 20
-29 10 -29 10 -30 -26 -34 l-37 -4 41 -1 c60 -3 68 -30 11 -35 l-42 -4 43 -1
c24 -1 41 -6 38 -11 -3 -5 1 -14 9 -21 24 -20 17 -29 -27 -33 -41 -3 -41 -4
10 -5 40 -2 52 1 52 13 0 8 6 15 13 15 8 0 7 4 -3 10 -8 5 -11 10 -6 10 5 0
18 -8 29 -17 19 -17 19 -17 13 4 -5 15 -2 24 11 31 16 10 17 12 1 29 -19 21
-13 38 17 46 11 2 -1 5 -27 6 -52 1 -73 17 -31 24 21 3 19 4 -12 6 -47 2 -61
9 -68 36 -2 11 -5 15 -6 8z"/>
</g>
</svg>
